<mxfile host="app.diagrams.net" modified="2022-11-02T12:54:13.721Z" agent="5.0 (Windows NT 10.0; Win64; x64) AppleWebKit/537.36 (KHTML, like Gecko) Chrome/107.0.0.0 Safari/537.36 Edg/107.0.1418.26" etag="GsgfegKN_bcEt8TsHUwF" version="20.5.1" type="github" pages="2">
  <diagram id="axVk7lnWbnFJgNPXd5j-" name="Страница 1">
    <mxGraphModel dx="283" dy="591" grid="1" gridSize="10" guides="1" tooltips="1" connect="1" arrows="1" fold="1" page="1" pageScale="1" pageWidth="827" pageHeight="1169" math="0" shadow="0">
      <root>
        <mxCell id="0" />
        <mxCell id="1" parent="0" />
        <mxCell id="Dc6S5-3U-Lf79-AnV3NW-3" value="Transaction" style="rounded=0;whiteSpace=wrap;html=1;fillColor=#e1d5e7;strokeColor=#9673a6;" parent="1" vertex="1">
          <mxGeometry x="897" y="460" width="120" height="60" as="geometry" />
        </mxCell>
        <mxCell id="1e0iizeXlH-LscH0-QRG-50" style="edgeStyle=none;rounded=0;orthogonalLoop=1;jettySize=auto;html=1;exitX=1;exitY=0.75;exitDx=0;exitDy=0;endArrow=none;endFill=0;entryX=0;entryY=0.5;entryDx=0;entryDy=0;" edge="1" parent="1" source="Dc6S5-3U-Lf79-AnV3NW-4" target="1e0iizeXlH-LscH0-QRG-51">
          <mxGeometry relative="1" as="geometry">
            <mxPoint x="340" y="545.625" as="targetPoint" />
          </mxGeometry>
        </mxCell>
        <mxCell id="1e0iizeXlH-LscH0-QRG-54" style="edgeStyle=none;rounded=0;orthogonalLoop=1;jettySize=auto;html=1;exitX=1;exitY=0.75;exitDx=0;exitDy=0;entryX=0;entryY=0.5;entryDx=0;entryDy=0;endArrow=none;endFill=0;" edge="1" parent="1" source="Dc6S5-3U-Lf79-AnV3NW-4" target="1e0iizeXlH-LscH0-QRG-53">
          <mxGeometry relative="1" as="geometry" />
        </mxCell>
        <mxCell id="1e0iizeXlH-LscH0-QRG-93" style="edgeStyle=none;rounded=0;orthogonalLoop=1;jettySize=auto;html=1;exitX=1;exitY=1;exitDx=0;exitDy=0;entryX=0;entryY=0.5;entryDx=0;entryDy=0;endArrow=none;endFill=0;" edge="1" parent="1" source="Dc6S5-3U-Lf79-AnV3NW-4" target="1e0iizeXlH-LscH0-QRG-92">
          <mxGeometry relative="1" as="geometry" />
        </mxCell>
        <mxCell id="Dc6S5-3U-Lf79-AnV3NW-4" value="User" style="rounded=0;whiteSpace=wrap;html=1;fillColor=#e1d5e7;strokeColor=#9673a6;" parent="1" vertex="1">
          <mxGeometry x="120" y="460" width="120" height="60" as="geometry" />
        </mxCell>
        <mxCell id="Dc6S5-3U-Lf79-AnV3NW-5" value="Account" style="rounded=0;whiteSpace=wrap;html=1;fillColor=#e1d5e7;strokeColor=#9673a6;" parent="1" vertex="1">
          <mxGeometry x="560" y="460" width="110" height="60" as="geometry" />
        </mxCell>
        <mxCell id="Dc6S5-3U-Lf79-AnV3NW-6" value="Experience" style="rounded=0;whiteSpace=wrap;html=1;fillColor=#e1d5e7;strokeColor=#9673a6;" parent="1" vertex="1">
          <mxGeometry x="120" y="680" width="120" height="60" as="geometry" />
        </mxCell>
        <mxCell id="TsbDV6BTTnVZYsI7FMhj-1" value="have" style="rhombus;whiteSpace=wrap;html=1;fillColor=#fff2cc;strokeColor=#d6b656;" parent="1" vertex="1">
          <mxGeometry x="140" y="570" width="80" height="60" as="geometry" />
        </mxCell>
        <mxCell id="TsbDV6BTTnVZYsI7FMhj-2" value="consis of" style="rhombus;whiteSpace=wrap;html=1;fillColor=#fff2cc;strokeColor=#d6b656;" parent="1" vertex="1">
          <mxGeometry x="140" y="780" width="80" height="60" as="geometry" />
        </mxCell>
        <mxCell id="TsbDV6BTTnVZYsI7FMhj-3" value="impact" style="rhombus;whiteSpace=wrap;html=1;fillColor=#fff2cc;strokeColor=#d6b656;" parent="1" vertex="1">
          <mxGeometry x="747" y="460" width="80" height="60" as="geometry" />
        </mxCell>
        <mxCell id="TsbDV6BTTnVZYsI7FMhj-4" value="have" style="rhombus;whiteSpace=wrap;html=1;fillColor=#fff2cc;strokeColor=#d6b656;" parent="1" vertex="1">
          <mxGeometry x="300" y="460" width="80" height="60" as="geometry" />
        </mxCell>
        <mxCell id="TsbDV6BTTnVZYsI7FMhj-8" value="" style="endArrow=none;html=1;exitX=0.5;exitY=1;exitDx=0;exitDy=0;entryX=0.5;entryY=0;entryDx=0;entryDy=0;" parent="1" source="TsbDV6BTTnVZYsI7FMhj-1" target="Dc6S5-3U-Lf79-AnV3NW-6" edge="1">
          <mxGeometry width="50" height="50" relative="1" as="geometry">
            <mxPoint x="380" y="580" as="sourcePoint" />
            <mxPoint x="430" y="530" as="targetPoint" />
          </mxGeometry>
        </mxCell>
        <mxCell id="TsbDV6BTTnVZYsI7FMhj-9" value="" style="endArrow=none;html=1;entryX=0.5;entryY=0;entryDx=0;entryDy=0;" parent="1" target="TsbDV6BTTnVZYsI7FMhj-2" edge="1">
          <mxGeometry width="50" height="50" relative="1" as="geometry">
            <mxPoint x="180" y="740" as="sourcePoint" />
            <mxPoint x="430" y="530" as="targetPoint" />
          </mxGeometry>
        </mxCell>
        <mxCell id="TsbDV6BTTnVZYsI7FMhj-11" value="" style="endArrow=none;html=1;exitX=0;exitY=0.5;exitDx=0;exitDy=0;entryX=1;entryY=0.5;entryDx=0;entryDy=0;" parent="1" source="Dc6S5-3U-Lf79-AnV3NW-3" target="TsbDV6BTTnVZYsI7FMhj-3" edge="1">
          <mxGeometry width="50" height="50" relative="1" as="geometry">
            <mxPoint x="570" y="570" as="sourcePoint" />
            <mxPoint x="850" y="480" as="targetPoint" />
          </mxGeometry>
        </mxCell>
        <mxCell id="TsbDV6BTTnVZYsI7FMhj-12" value="" style="endArrow=none;html=1;entryX=0;entryY=0.5;entryDx=0;entryDy=0;exitX=1;exitY=0.5;exitDx=0;exitDy=0;" parent="1" source="Dc6S5-3U-Lf79-AnV3NW-5" target="TsbDV6BTTnVZYsI7FMhj-3" edge="1">
          <mxGeometry width="50" height="50" relative="1" as="geometry">
            <mxPoint x="510" y="580" as="sourcePoint" />
            <mxPoint x="560" y="530" as="targetPoint" />
          </mxGeometry>
        </mxCell>
        <mxCell id="TsbDV6BTTnVZYsI7FMhj-13" value="" style="endArrow=none;html=1;exitX=1;exitY=0.5;exitDx=0;exitDy=0;entryX=0;entryY=0.5;entryDx=0;entryDy=0;" parent="1" source="TsbDV6BTTnVZYsI7FMhj-4" target="Dc6S5-3U-Lf79-AnV3NW-5" edge="1">
          <mxGeometry width="50" height="50" relative="1" as="geometry">
            <mxPoint x="380" y="580" as="sourcePoint" />
            <mxPoint x="430" y="530" as="targetPoint" />
          </mxGeometry>
        </mxCell>
        <mxCell id="TsbDV6BTTnVZYsI7FMhj-14" value="" style="endArrow=none;html=1;exitX=1;exitY=0.5;exitDx=0;exitDy=0;entryX=0;entryY=0.5;entryDx=0;entryDy=0;" parent="1" source="Dc6S5-3U-Lf79-AnV3NW-4" target="TsbDV6BTTnVZYsI7FMhj-4" edge="1">
          <mxGeometry width="50" height="50" relative="1" as="geometry">
            <mxPoint x="380" y="580" as="sourcePoint" />
            <mxPoint x="430" y="530" as="targetPoint" />
          </mxGeometry>
        </mxCell>
        <mxCell id="TsbDV6BTTnVZYsI7FMhj-15" value="" style="endArrow=none;html=1;exitX=0.5;exitY=1;exitDx=0;exitDy=0;entryX=0.5;entryY=0;entryDx=0;entryDy=0;" parent="1" source="Dc6S5-3U-Lf79-AnV3NW-4" target="TsbDV6BTTnVZYsI7FMhj-1" edge="1">
          <mxGeometry width="50" height="50" relative="1" as="geometry">
            <mxPoint x="380" y="580" as="sourcePoint" />
            <mxPoint x="430" y="530" as="targetPoint" />
          </mxGeometry>
        </mxCell>
        <mxCell id="TsbDV6BTTnVZYsI7FMhj-20" value="0,N" style="text;html=1;strokeColor=none;fillColor=none;align=center;verticalAlign=middle;whiteSpace=wrap;rounded=0;" parent="1" vertex="1">
          <mxGeometry x="850" y="465" width="40" height="20" as="geometry" />
        </mxCell>
        <mxCell id="TsbDV6BTTnVZYsI7FMhj-21" value="1,2" style="text;html=1;strokeColor=none;fillColor=none;align=center;verticalAlign=middle;whiteSpace=wrap;rounded=0;" parent="1" vertex="1">
          <mxGeometry x="670" y="470" width="40" height="20" as="geometry" />
        </mxCell>
        <mxCell id="TsbDV6BTTnVZYsI7FMhj-22" value="1,1" style="text;html=1;strokeColor=none;fillColor=none;align=center;verticalAlign=middle;whiteSpace=wrap;rounded=0;" parent="1" vertex="1">
          <mxGeometry x="250" y="465" width="40" height="20" as="geometry" />
        </mxCell>
        <mxCell id="TsbDV6BTTnVZYsI7FMhj-23" value="1,1" style="text;html=1;strokeColor=none;fillColor=none;align=center;verticalAlign=middle;whiteSpace=wrap;rounded=0;" parent="1" vertex="1">
          <mxGeometry x="510" y="465" width="40" height="20" as="geometry" />
        </mxCell>
        <mxCell id="TsbDV6BTTnVZYsI7FMhj-24" value="1,1" style="text;html=1;strokeColor=none;fillColor=none;align=center;verticalAlign=middle;whiteSpace=wrap;rounded=0;" parent="1" vertex="1">
          <mxGeometry x="130" y="539" width="40" height="20" as="geometry" />
        </mxCell>
        <mxCell id="TsbDV6BTTnVZYsI7FMhj-26" value="1,1" style="text;html=1;strokeColor=none;fillColor=none;align=center;verticalAlign=middle;whiteSpace=wrap;rounded=0;" parent="1" vertex="1">
          <mxGeometry x="130" y="650" width="40" height="20" as="geometry" />
        </mxCell>
        <mxCell id="TsbDV6BTTnVZYsI7FMhj-27" value="1,1" style="text;html=1;strokeColor=none;fillColor=none;align=center;verticalAlign=middle;whiteSpace=wrap;rounded=0;" parent="1" vertex="1">
          <mxGeometry x="130" y="750" width="40" height="20" as="geometry" />
        </mxCell>
        <mxCell id="TsbDV6BTTnVZYsI7FMhj-33" value="state" style="ellipse;whiteSpace=wrap;html=1;fillColor=#f8cecc;strokeColor=#b85450;" parent="1" vertex="1">
          <mxGeometry x="585" y="390" width="60" height="30" as="geometry" />
        </mxCell>
        <mxCell id="TsbDV6BTTnVZYsI7FMhj-35" value="transaction_status" style="ellipse;whiteSpace=wrap;html=1;fillColor=#f8cecc;strokeColor=#b85450;" parent="1" vertex="1">
          <mxGeometry x="897" y="544.5" width="143" height="30" as="geometry" />
        </mxCell>
        <mxCell id="TsbDV6BTTnVZYsI7FMhj-37" value="time" style="ellipse;whiteSpace=wrap;html=1;fillColor=#f8cecc;strokeColor=#b85450;" parent="1" vertex="1">
          <mxGeometry x="917" y="390" width="80" height="30" as="geometry" />
        </mxCell>
        <mxCell id="TsbDV6BTTnVZYsI7FMhj-38" value="&lt;u&gt;transaction_id&lt;/u&gt;" style="ellipse;whiteSpace=wrap;html=1;fillColor=#f8cecc;strokeColor=#b85450;" parent="1" vertex="1">
          <mxGeometry x="800" y="410" width="107" height="30" as="geometry" />
        </mxCell>
        <mxCell id="TsbDV6BTTnVZYsI7FMhj-39" value="gender" style="ellipse;whiteSpace=wrap;html=1;fillColor=#f8cecc;strokeColor=#b85450;" parent="1" vertex="1">
          <mxGeometry x="80" y="350" width="80" height="40" as="geometry" />
        </mxCell>
        <mxCell id="TsbDV6BTTnVZYsI7FMhj-40" value="birth_date" style="ellipse;whiteSpace=wrap;html=1;fillColor=#f8cecc;strokeColor=#b85450;" parent="1" vertex="1">
          <mxGeometry x="20" y="490" width="80" height="30" as="geometry" />
        </mxCell>
        <mxCell id="TsbDV6BTTnVZYsI7FMhj-41" value="full_name" style="ellipse;whiteSpace=wrap;html=1;fillColor=#f8cecc;strokeColor=#b85450;" parent="1" vertex="1">
          <mxGeometry x="50" y="534" width="70" height="30" as="geometry" />
        </mxCell>
        <mxCell id="TsbDV6BTTnVZYsI7FMhj-43" value="size" style="ellipse;whiteSpace=wrap;html=1;fillColor=#f8cecc;strokeColor=#b85450;" parent="1" vertex="1">
          <mxGeometry x="1010" y="395" width="77" height="30" as="geometry" />
        </mxCell>
        <mxCell id="TsbDV6BTTnVZYsI7FMhj-44" value="business_status" style="ellipse;whiteSpace=wrap;html=1;fillColor=#f8cecc;strokeColor=#b85450;" parent="1" vertex="1">
          <mxGeometry x="230" y="755" width="110" height="40" as="geometry" />
        </mxCell>
        <mxCell id="TsbDV6BTTnVZYsI7FMhj-45" value="video_link" style="ellipse;whiteSpace=wrap;html=1;fillColor=#f8cecc;strokeColor=#b85450;" parent="1" vertex="1">
          <mxGeometry x="270" y="680" width="85" height="30" as="geometry" />
        </mxCell>
        <mxCell id="TsbDV6BTTnVZYsI7FMhj-46" value="about" style="ellipse;whiteSpace=wrap;html=1;fillColor=#f8cecc;strokeColor=#b85450;" parent="1" vertex="1">
          <mxGeometry x="25" y="725" width="70" height="30" as="geometry" />
        </mxCell>
        <mxCell id="TsbDV6BTTnVZYsI7FMhj-47" value="experience_age" style="ellipse;whiteSpace=wrap;html=1;fillColor=#f8cecc;strokeColor=#b85450;" parent="1" vertex="1">
          <mxGeometry x="10" y="630" width="115" height="30" as="geometry" />
        </mxCell>
        <mxCell id="TsbDV6BTTnVZYsI7FMhj-48" value="documents_checked" style="ellipse;whiteSpace=wrap;html=1;fillColor=#f8cecc;strokeColor=#b85450;" parent="1" vertex="1">
          <mxGeometry x="190" y="360" width="160" height="30" as="geometry" />
        </mxCell>
        <mxCell id="TsbDV6BTTnVZYsI7FMhj-49" value="&lt;u&gt;user_id&lt;/u&gt;" style="ellipse;whiteSpace=wrap;html=1;fillColor=#f8cecc;strokeColor=#b85450;" parent="1" vertex="1">
          <mxGeometry x="260" y="405" width="80" height="30" as="geometry" />
        </mxCell>
        <mxCell id="TsbDV6BTTnVZYsI7FMhj-51" value="is_blocked" style="ellipse;whiteSpace=wrap;html=1;fillColor=#f8cecc;strokeColor=#b85450;" parent="1" vertex="1">
          <mxGeometry x="660" y="395" width="110" height="40" as="geometry" />
        </mxCell>
        <mxCell id="TsbDV6BTTnVZYsI7FMhj-53" value="email" style="ellipse;whiteSpace=wrap;html=1;fillColor=#f8cecc;strokeColor=#b85450;" parent="1" vertex="1">
          <mxGeometry x="5" y="435" width="55" height="40" as="geometry" />
        </mxCell>
        <mxCell id="TsbDV6BTTnVZYsI7FMhj-54" value="&lt;u&gt;account_id&lt;/u&gt;" style="ellipse;whiteSpace=wrap;html=1;fillColor=#f8cecc;strokeColor=#b85450;" parent="1" vertex="1">
          <mxGeometry x="490" y="410" width="80" height="30" as="geometry" />
        </mxCell>
        <mxCell id="TsbDV6BTTnVZYsI7FMhj-56" value="phone_number" style="ellipse;whiteSpace=wrap;html=1;fillColor=#f8cecc;strokeColor=#b85450;" parent="1" vertex="1">
          <mxGeometry x="10" y="390" width="100" height="30" as="geometry" />
        </mxCell>
        <mxCell id="TsbDV6BTTnVZYsI7FMhj-68" value="" style="endArrow=none;html=1;entryX=0.5;entryY=1;entryDx=0;entryDy=0;exitX=0.75;exitY=0;exitDx=0;exitDy=0;" parent="1" source="Dc6S5-3U-Lf79-AnV3NW-3" target="TsbDV6BTTnVZYsI7FMhj-43" edge="1">
          <mxGeometry width="50" height="50" relative="1" as="geometry">
            <mxPoint x="540" y="470" as="sourcePoint" />
            <mxPoint x="590" y="420" as="targetPoint" />
          </mxGeometry>
        </mxCell>
        <mxCell id="TsbDV6BTTnVZYsI7FMhj-71" value="" style="endArrow=none;html=1;entryX=0.5;entryY=1;entryDx=0;entryDy=0;exitX=0.25;exitY=0;exitDx=0;exitDy=0;" parent="1" source="Dc6S5-3U-Lf79-AnV3NW-3" target="TsbDV6BTTnVZYsI7FMhj-37" edge="1">
          <mxGeometry width="50" height="50" relative="1" as="geometry">
            <mxPoint x="540" y="470" as="sourcePoint" />
            <mxPoint x="590" y="420" as="targetPoint" />
          </mxGeometry>
        </mxCell>
        <mxCell id="TsbDV6BTTnVZYsI7FMhj-72" value="" style="endArrow=none;html=1;entryX=0.5;entryY=1;entryDx=0;entryDy=0;exitX=0;exitY=0;exitDx=0;exitDy=0;" parent="1" source="Dc6S5-3U-Lf79-AnV3NW-3" target="TsbDV6BTTnVZYsI7FMhj-38" edge="1">
          <mxGeometry width="50" height="50" relative="1" as="geometry">
            <mxPoint x="540" y="470" as="sourcePoint" />
            <mxPoint x="590" y="420" as="targetPoint" />
          </mxGeometry>
        </mxCell>
        <mxCell id="TsbDV6BTTnVZYsI7FMhj-74" value="" style="endArrow=none;html=1;exitX=1;exitY=0.5;exitDx=0;exitDy=0;entryX=0;entryY=0.5;entryDx=0;entryDy=0;dashed=1;" parent="1" source="Dc6S5-3U-Lf79-AnV3NW-6" target="TsbDV6BTTnVZYsI7FMhj-45" edge="1">
          <mxGeometry width="50" height="50" relative="1" as="geometry">
            <mxPoint x="120" y="710" as="sourcePoint" />
            <mxPoint x="90" y="700" as="targetPoint" />
          </mxGeometry>
        </mxCell>
        <mxCell id="TsbDV6BTTnVZYsI7FMhj-75" value="" style="endArrow=none;html=1;entryX=0.5;entryY=0;entryDx=0;entryDy=0;exitX=1;exitY=1;exitDx=0;exitDy=0;dashed=1;" parent="1" source="Dc6S5-3U-Lf79-AnV3NW-6" target="TsbDV6BTTnVZYsI7FMhj-44" edge="1">
          <mxGeometry width="50" height="50" relative="1" as="geometry">
            <mxPoint x="440" y="480" as="sourcePoint" />
            <mxPoint x="490" y="430" as="targetPoint" />
          </mxGeometry>
        </mxCell>
        <mxCell id="TsbDV6BTTnVZYsI7FMhj-78" value="" style="endArrow=none;html=1;entryX=0.5;entryY=1;entryDx=0;entryDy=0;exitX=0.5;exitY=0;exitDx=0;exitDy=0;" parent="1" source="TsbDV6BTTnVZYsI7FMhj-35" target="Dc6S5-3U-Lf79-AnV3NW-3" edge="1">
          <mxGeometry width="50" height="50" relative="1" as="geometry">
            <mxPoint x="960" y="520" as="sourcePoint" />
            <mxPoint x="680" y="420" as="targetPoint" />
          </mxGeometry>
        </mxCell>
        <mxCell id="TsbDV6BTTnVZYsI7FMhj-80" value="" style="endArrow=none;html=1;exitX=1;exitY=0.25;exitDx=0;exitDy=0;entryX=0.5;entryY=1;entryDx=0;entryDy=0;" parent="1" source="Dc6S5-3U-Lf79-AnV3NW-4" target="TsbDV6BTTnVZYsI7FMhj-49" edge="1">
          <mxGeometry width="50" height="50" relative="1" as="geometry">
            <mxPoint x="440" y="480" as="sourcePoint" />
            <mxPoint x="490" y="430" as="targetPoint" />
          </mxGeometry>
        </mxCell>
        <mxCell id="TsbDV6BTTnVZYsI7FMhj-81" value="" style="endArrow=none;html=1;entryX=0.5;entryY=1;entryDx=0;entryDy=0;exitX=0.75;exitY=0;exitDx=0;exitDy=0;" parent="1" source="Dc6S5-3U-Lf79-AnV3NW-4" target="TsbDV6BTTnVZYsI7FMhj-48" edge="1">
          <mxGeometry width="50" height="50" relative="1" as="geometry">
            <mxPoint x="440" y="480" as="sourcePoint" />
            <mxPoint x="490" y="430" as="targetPoint" />
          </mxGeometry>
        </mxCell>
        <mxCell id="TsbDV6BTTnVZYsI7FMhj-82" value="" style="endArrow=none;html=1;exitX=1;exitY=1;exitDx=0;exitDy=0;entryX=0.25;entryY=0;entryDx=0;entryDy=0;" parent="1" source="TsbDV6BTTnVZYsI7FMhj-54" target="Dc6S5-3U-Lf79-AnV3NW-5" edge="1">
          <mxGeometry width="50" height="50" relative="1" as="geometry">
            <mxPoint x="530" y="430" as="sourcePoint" />
            <mxPoint x="500" y="570" as="targetPoint" />
          </mxGeometry>
        </mxCell>
        <mxCell id="TsbDV6BTTnVZYsI7FMhj-84" value="" style="endArrow=none;html=1;entryX=0.5;entryY=1;entryDx=0;entryDy=0;exitX=0.75;exitY=0;exitDx=0;exitDy=0;" parent="1" source="Dc6S5-3U-Lf79-AnV3NW-5" target="TsbDV6BTTnVZYsI7FMhj-51" edge="1">
          <mxGeometry width="50" height="50" relative="1" as="geometry">
            <mxPoint x="570" y="480" as="sourcePoint" />
            <mxPoint x="620" y="430" as="targetPoint" />
          </mxGeometry>
        </mxCell>
        <mxCell id="TsbDV6BTTnVZYsI7FMhj-85" value="" style="endArrow=none;html=1;exitX=0.5;exitY=0;exitDx=0;exitDy=0;entryX=0.5;entryY=1;entryDx=0;entryDy=0;" parent="1" source="Dc6S5-3U-Lf79-AnV3NW-5" target="TsbDV6BTTnVZYsI7FMhj-33" edge="1">
          <mxGeometry width="50" height="50" relative="1" as="geometry">
            <mxPoint x="570" y="480" as="sourcePoint" />
            <mxPoint x="610" y="420" as="targetPoint" />
          </mxGeometry>
        </mxCell>
        <mxCell id="TsbDV6BTTnVZYsI7FMhj-86" value="" style="endArrow=none;html=1;entryX=1;entryY=1;entryDx=0;entryDy=0;exitX=0;exitY=0.5;exitDx=0;exitDy=0;dashed=1;" parent="1" source="Dc6S5-3U-Lf79-AnV3NW-6" target="TsbDV6BTTnVZYsI7FMhj-47" edge="1">
          <mxGeometry width="50" height="50" relative="1" as="geometry">
            <mxPoint x="440" y="480" as="sourcePoint" />
            <mxPoint x="490" y="430" as="targetPoint" />
          </mxGeometry>
        </mxCell>
        <mxCell id="TsbDV6BTTnVZYsI7FMhj-87" value="" style="endArrow=none;html=1;exitX=1;exitY=0.5;exitDx=0;exitDy=0;entryX=0;entryY=0.75;entryDx=0;entryDy=0;dashed=1;" parent="1" source="TsbDV6BTTnVZYsI7FMhj-46" target="Dc6S5-3U-Lf79-AnV3NW-6" edge="1">
          <mxGeometry width="50" height="50" relative="1" as="geometry">
            <mxPoint x="440" y="480" as="sourcePoint" />
            <mxPoint x="490" y="430" as="targetPoint" />
          </mxGeometry>
        </mxCell>
        <mxCell id="TsbDV6BTTnVZYsI7FMhj-94" value="" style="endArrow=none;html=1;entryX=1;entryY=0.5;entryDx=0;entryDy=0;exitX=0;exitY=0.75;exitDx=0;exitDy=0;" parent="1" source="Dc6S5-3U-Lf79-AnV3NW-4" target="TsbDV6BTTnVZYsI7FMhj-40" edge="1">
          <mxGeometry width="50" height="50" relative="1" as="geometry">
            <mxPoint x="440" y="480" as="sourcePoint" />
            <mxPoint x="490" y="430" as="targetPoint" />
          </mxGeometry>
        </mxCell>
        <mxCell id="TsbDV6BTTnVZYsI7FMhj-95" value="" style="endArrow=none;html=1;entryX=1;entryY=0.5;entryDx=0;entryDy=0;exitX=0;exitY=0.25;exitDx=0;exitDy=0;" parent="1" source="Dc6S5-3U-Lf79-AnV3NW-4" target="TsbDV6BTTnVZYsI7FMhj-53" edge="1">
          <mxGeometry width="50" height="50" relative="1" as="geometry">
            <mxPoint x="440" y="480" as="sourcePoint" />
            <mxPoint x="490" y="430" as="targetPoint" />
          </mxGeometry>
        </mxCell>
        <mxCell id="TsbDV6BTTnVZYsI7FMhj-96" value="" style="endArrow=none;html=1;entryX=1;entryY=1;entryDx=0;entryDy=0;exitX=0;exitY=0;exitDx=0;exitDy=0;" parent="1" source="Dc6S5-3U-Lf79-AnV3NW-4" target="TsbDV6BTTnVZYsI7FMhj-56" edge="1">
          <mxGeometry width="50" height="50" relative="1" as="geometry">
            <mxPoint x="440" y="480" as="sourcePoint" />
            <mxPoint x="490" y="430" as="targetPoint" />
          </mxGeometry>
        </mxCell>
        <mxCell id="TsbDV6BTTnVZYsI7FMhj-97" value="" style="endArrow=none;html=1;exitX=0.25;exitY=0;exitDx=0;exitDy=0;entryX=0.5;entryY=1;entryDx=0;entryDy=0;" parent="1" source="Dc6S5-3U-Lf79-AnV3NW-4" target="TsbDV6BTTnVZYsI7FMhj-39" edge="1">
          <mxGeometry width="50" height="50" relative="1" as="geometry">
            <mxPoint x="440" y="480" as="sourcePoint" />
            <mxPoint x="490" y="430" as="targetPoint" />
          </mxGeometry>
        </mxCell>
        <mxCell id="TsbDV6BTTnVZYsI7FMhj-98" value="" style="endArrow=none;html=1;exitX=1;exitY=0;exitDx=0;exitDy=0;entryX=0.25;entryY=1;entryDx=0;entryDy=0;" parent="1" source="TsbDV6BTTnVZYsI7FMhj-41" target="Dc6S5-3U-Lf79-AnV3NW-4" edge="1">
          <mxGeometry width="50" height="50" relative="1" as="geometry">
            <mxPoint x="440" y="480" as="sourcePoint" />
            <mxPoint x="490" y="430" as="targetPoint" />
          </mxGeometry>
        </mxCell>
        <mxCell id="1e0iizeXlH-LscH0-QRG-7" style="rounded=0;orthogonalLoop=1;jettySize=auto;html=1;exitX=0.5;exitY=1;exitDx=0;exitDy=0;entryX=0.75;entryY=0;entryDx=0;entryDy=0;endArrow=none;endFill=0;" edge="1" parent="1" source="1e0iizeXlH-LscH0-QRG-6" target="Dc6S5-3U-Lf79-AnV3NW-6">
          <mxGeometry relative="1" as="geometry" />
        </mxCell>
        <mxCell id="1e0iizeXlH-LscH0-QRG-6" value="&lt;u&gt;experience_id&lt;/u&gt;" style="ellipse;whiteSpace=wrap;html=1;fillColor=#f8cecc;strokeColor=#b85450;" vertex="1" parent="1">
          <mxGeometry x="190" y="620" width="100" height="30" as="geometry" />
        </mxCell>
        <mxCell id="1e0iizeXlH-LscH0-QRG-9" style="edgeStyle=none;rounded=0;orthogonalLoop=1;jettySize=auto;html=1;exitX=0.5;exitY=1;exitDx=0;exitDy=0;dashed=1;endArrow=none;endFill=0;" edge="1" parent="1" source="TsbDV6BTTnVZYsI7FMhj-47" target="TsbDV6BTTnVZYsI7FMhj-47">
          <mxGeometry relative="1" as="geometry" />
        </mxCell>
        <mxCell id="1e0iizeXlH-LscH0-QRG-10" value="Album" style="rounded=0;whiteSpace=wrap;html=1;fillColor=#e1d5e7;strokeColor=#9673a6;" vertex="1" parent="1">
          <mxGeometry x="120" y="900" width="120" height="60" as="geometry" />
        </mxCell>
        <mxCell id="1e0iizeXlH-LscH0-QRG-11" value="" style="endArrow=none;html=1;exitX=0.5;exitY=1;exitDx=0;exitDy=0;entryX=0.5;entryY=0;entryDx=0;entryDy=0;" edge="1" parent="1" target="1e0iizeXlH-LscH0-QRG-10" source="TsbDV6BTTnVZYsI7FMhj-2">
          <mxGeometry width="50" height="50" relative="1" as="geometry">
            <mxPoint x="180" y="850" as="sourcePoint" />
            <mxPoint x="430" y="750" as="targetPoint" />
          </mxGeometry>
        </mxCell>
        <mxCell id="1e0iizeXlH-LscH0-QRG-12" value="" style="endArrow=none;html=1;entryX=0.5;entryY=0;entryDx=0;entryDy=0;exitX=0.5;exitY=1;exitDx=0;exitDy=0;" edge="1" parent="1" source="1e0iizeXlH-LscH0-QRG-44" target="1e0iizeXlH-LscH0-QRG-27">
          <mxGeometry width="50" height="50" relative="1" as="geometry">
            <mxPoint x="180" y="960" as="sourcePoint" />
            <mxPoint x="180" y="1000" as="targetPoint" />
          </mxGeometry>
        </mxCell>
        <mxCell id="1e0iizeXlH-LscH0-QRG-13" value="0,N" style="text;html=1;strokeColor=none;fillColor=none;align=center;verticalAlign=middle;whiteSpace=wrap;rounded=0;" vertex="1" parent="1">
          <mxGeometry x="130" y="860" width="40" height="20" as="geometry" />
        </mxCell>
        <mxCell id="1e0iizeXlH-LscH0-QRG-14" value="1,1" style="text;html=1;strokeColor=none;fillColor=none;align=center;verticalAlign=middle;whiteSpace=wrap;rounded=0;" vertex="1" parent="1">
          <mxGeometry x="130" y="970" width="40" height="20" as="geometry" />
        </mxCell>
        <mxCell id="1e0iizeXlH-LscH0-QRG-17" value="description" style="ellipse;whiteSpace=wrap;html=1;fillColor=#f8cecc;strokeColor=#b85450;" vertex="1" parent="1">
          <mxGeometry x="10" y="915" width="70" height="30" as="geometry" />
        </mxCell>
        <mxCell id="1e0iizeXlH-LscH0-QRG-18" value="name" style="ellipse;whiteSpace=wrap;html=1;fillColor=#f8cecc;strokeColor=#b85450;" vertex="1" parent="1">
          <mxGeometry x="45" y="860" width="55" height="30" as="geometry" />
        </mxCell>
        <mxCell id="1e0iizeXlH-LscH0-QRG-21" value="" style="endArrow=none;html=1;entryX=1;entryY=1;entryDx=0;entryDy=0;exitX=0;exitY=0.5;exitDx=0;exitDy=0;" edge="1" parent="1" source="1e0iizeXlH-LscH0-QRG-10" target="1e0iizeXlH-LscH0-QRG-18">
          <mxGeometry width="50" height="50" relative="1" as="geometry">
            <mxPoint x="440" y="700" as="sourcePoint" />
            <mxPoint x="490" y="650" as="targetPoint" />
          </mxGeometry>
        </mxCell>
        <mxCell id="1e0iizeXlH-LscH0-QRG-22" value="" style="endArrow=none;html=1;exitX=1;exitY=0.5;exitDx=0;exitDy=0;entryX=0;entryY=0.75;entryDx=0;entryDy=0;dashed=1;" edge="1" parent="1" source="1e0iizeXlH-LscH0-QRG-17" target="1e0iizeXlH-LscH0-QRG-10">
          <mxGeometry width="50" height="50" relative="1" as="geometry">
            <mxPoint x="440" y="700" as="sourcePoint" />
            <mxPoint x="490" y="650" as="targetPoint" />
          </mxGeometry>
        </mxCell>
        <mxCell id="1e0iizeXlH-LscH0-QRG-23" style="rounded=0;orthogonalLoop=1;jettySize=auto;html=1;exitX=0.5;exitY=1;exitDx=0;exitDy=0;endArrow=none;endFill=0;entryX=0;entryY=0.75;entryDx=0;entryDy=0;" edge="1" parent="1" source="1e0iizeXlH-LscH0-QRG-24" target="1e0iizeXlH-LscH0-QRG-10">
          <mxGeometry relative="1" as="geometry">
            <mxPoint x="120" y="940" as="targetPoint" />
          </mxGeometry>
        </mxCell>
        <mxCell id="1e0iizeXlH-LscH0-QRG-24" value="&lt;u&gt;album_id&lt;/u&gt;" style="ellipse;whiteSpace=wrap;html=1;fillColor=#f8cecc;strokeColor=#b85450;" vertex="1" parent="1">
          <mxGeometry x="10" y="960" width="100" height="30" as="geometry" />
        </mxCell>
        <mxCell id="1e0iizeXlH-LscH0-QRG-25" style="edgeStyle=none;rounded=0;orthogonalLoop=1;jettySize=auto;html=1;exitX=0.5;exitY=1;exitDx=0;exitDy=0;dashed=1;endArrow=none;endFill=0;" edge="1" parent="1" source="1e0iizeXlH-LscH0-QRG-18" target="1e0iizeXlH-LscH0-QRG-18">
          <mxGeometry relative="1" as="geometry" />
        </mxCell>
        <mxCell id="1e0iizeXlH-LscH0-QRG-27" value="Photo" style="rounded=0;whiteSpace=wrap;html=1;fillColor=#e1d5e7;strokeColor=#9673a6;" vertex="1" parent="1">
          <mxGeometry x="120" y="1100" width="120" height="60" as="geometry" />
        </mxCell>
        <mxCell id="1e0iizeXlH-LscH0-QRG-30" value="1,N" style="text;html=1;strokeColor=none;fillColor=none;align=center;verticalAlign=middle;whiteSpace=wrap;rounded=0;" vertex="1" parent="1">
          <mxGeometry x="130" y="1070" width="40" height="20" as="geometry" />
        </mxCell>
        <mxCell id="1e0iizeXlH-LscH0-QRG-35" value="image" style="ellipse;whiteSpace=wrap;html=1;fillColor=#f8cecc;strokeColor=#b85450;" vertex="1" parent="1">
          <mxGeometry x="20" y="1130" width="65" height="30" as="geometry" />
        </mxCell>
        <mxCell id="1e0iizeXlH-LscH0-QRG-38" value="" style="endArrow=none;html=1;entryX=1;entryY=1;entryDx=0;entryDy=0;exitX=0;exitY=0.5;exitDx=0;exitDy=0;" edge="1" parent="1" source="1e0iizeXlH-LscH0-QRG-27" target="1e0iizeXlH-LscH0-QRG-35">
          <mxGeometry width="50" height="50" relative="1" as="geometry">
            <mxPoint x="435" y="960" as="sourcePoint" />
            <mxPoint x="485" y="910" as="targetPoint" />
          </mxGeometry>
        </mxCell>
        <mxCell id="1e0iizeXlH-LscH0-QRG-40" style="rounded=0;orthogonalLoop=1;jettySize=auto;html=1;exitX=0.5;exitY=1;exitDx=0;exitDy=0;entryX=0;entryY=0.25;entryDx=0;entryDy=0;endArrow=none;endFill=0;" edge="1" parent="1" source="1e0iizeXlH-LscH0-QRG-41" target="1e0iizeXlH-LscH0-QRG-27">
          <mxGeometry relative="1" as="geometry" />
        </mxCell>
        <mxCell id="1e0iizeXlH-LscH0-QRG-41" value="&lt;u&gt;photo_id&lt;/u&gt;" style="ellipse;whiteSpace=wrap;html=1;fillColor=#f8cecc;strokeColor=#b85450;" vertex="1" parent="1">
          <mxGeometry x="10" y="1070" width="100" height="30" as="geometry" />
        </mxCell>
        <mxCell id="1e0iizeXlH-LscH0-QRG-44" value="consis of" style="rhombus;whiteSpace=wrap;html=1;fillColor=#fff2cc;strokeColor=#d6b656;" vertex="1" parent="1">
          <mxGeometry x="140" y="1000" width="80" height="60" as="geometry" />
        </mxCell>
        <mxCell id="1e0iizeXlH-LscH0-QRG-45" value="" style="endArrow=none;html=1;entryX=0.5;entryY=0;entryDx=0;entryDy=0;exitX=0.5;exitY=1;exitDx=0;exitDy=0;" edge="1" parent="1" target="1e0iizeXlH-LscH0-QRG-44" source="1e0iizeXlH-LscH0-QRG-10">
          <mxGeometry width="50" height="50" relative="1" as="geometry">
            <mxPoint x="220" y="930" as="sourcePoint" />
            <mxPoint x="470" y="720" as="targetPoint" />
          </mxGeometry>
        </mxCell>
        <mxCell id="1e0iizeXlH-LscH0-QRG-67" style="edgeStyle=none;rounded=0;orthogonalLoop=1;jettySize=auto;html=1;exitX=1;exitY=0.5;exitDx=0;exitDy=0;entryX=0;entryY=0.25;entryDx=0;entryDy=0;endArrow=none;endFill=0;" edge="1" parent="1" source="1e0iizeXlH-LscH0-QRG-51" target="1e0iizeXlH-LscH0-QRG-57">
          <mxGeometry relative="1" as="geometry" />
        </mxCell>
        <mxCell id="1e0iizeXlH-LscH0-QRG-51" value="writes" style="rhombus;whiteSpace=wrap;html=1;fillColor=#fff2cc;strokeColor=#d6b656;" vertex="1" parent="1">
          <mxGeometry x="370" y="510" width="80" height="60" as="geometry" />
        </mxCell>
        <mxCell id="1e0iizeXlH-LscH0-QRG-70" style="edgeStyle=none;rounded=0;orthogonalLoop=1;jettySize=auto;html=1;exitX=1;exitY=0.5;exitDx=0;exitDy=0;entryX=0;entryY=0.5;entryDx=0;entryDy=0;endArrow=none;endFill=0;" edge="1" parent="1" source="1e0iizeXlH-LscH0-QRG-53" target="1e0iizeXlH-LscH0-QRG-57">
          <mxGeometry relative="1" as="geometry" />
        </mxCell>
        <mxCell id="1e0iizeXlH-LscH0-QRG-53" value="receives" style="rhombus;whiteSpace=wrap;html=1;fillColor=#fff2cc;strokeColor=#d6b656;" vertex="1" parent="1">
          <mxGeometry x="400" y="564" width="80" height="60" as="geometry" />
        </mxCell>
        <mxCell id="1e0iizeXlH-LscH0-QRG-55" value="1,1" style="text;html=1;strokeColor=none;fillColor=none;align=center;verticalAlign=middle;whiteSpace=wrap;rounded=0;" vertex="1" parent="1">
          <mxGeometry x="334" y="514" width="40" height="20" as="geometry" />
        </mxCell>
        <mxCell id="1e0iizeXlH-LscH0-QRG-56" value="1,1" style="text;html=1;strokeColor=none;fillColor=none;align=center;verticalAlign=middle;whiteSpace=wrap;rounded=0;" vertex="1" parent="1">
          <mxGeometry x="380" y="565" width="40" height="20" as="geometry" />
        </mxCell>
        <mxCell id="1e0iizeXlH-LscH0-QRG-57" value="Review" style="rounded=0;whiteSpace=wrap;html=1;fillColor=#e1d5e7;strokeColor=#9673a6;" vertex="1" parent="1">
          <mxGeometry x="580" y="610" width="110" height="60" as="geometry" />
        </mxCell>
        <mxCell id="1e0iizeXlH-LscH0-QRG-59" value="0,N" style="text;html=1;strokeColor=none;fillColor=none;align=center;verticalAlign=middle;whiteSpace=wrap;rounded=0;" vertex="1" parent="1">
          <mxGeometry x="454" y="520" width="40" height="20" as="geometry" />
        </mxCell>
        <mxCell id="1e0iizeXlH-LscH0-QRG-60" value="description" style="ellipse;whiteSpace=wrap;html=1;fillColor=#f8cecc;strokeColor=#b85450;" vertex="1" parent="1">
          <mxGeometry x="650" y="539" width="80" height="30" as="geometry" />
        </mxCell>
        <mxCell id="1e0iizeXlH-LscH0-QRG-61" value="&lt;u&gt;review_id&lt;/u&gt;" style="ellipse;whiteSpace=wrap;html=1;fillColor=#f8cecc;strokeColor=#b85450;" vertex="1" parent="1">
          <mxGeometry x="550" y="555" width="80" height="30" as="geometry" />
        </mxCell>
        <mxCell id="1e0iizeXlH-LscH0-QRG-62" value="" style="endArrow=none;html=1;exitX=1;exitY=1;exitDx=0;exitDy=0;entryX=0.25;entryY=0;entryDx=0;entryDy=0;" edge="1" parent="1" source="1e0iizeXlH-LscH0-QRG-61" target="1e0iizeXlH-LscH0-QRG-57">
          <mxGeometry width="50" height="50" relative="1" as="geometry">
            <mxPoint x="550" y="580" as="sourcePoint" />
            <mxPoint x="520" y="720" as="targetPoint" />
          </mxGeometry>
        </mxCell>
        <mxCell id="1e0iizeXlH-LscH0-QRG-63" value="" style="endArrow=none;html=1;entryX=0;entryY=1;entryDx=0;entryDy=0;exitX=1;exitY=0;exitDx=0;exitDy=0;" edge="1" parent="1" source="1e0iizeXlH-LscH0-QRG-57" target="1e0iizeXlH-LscH0-QRG-71">
          <mxGeometry width="50" height="50" relative="1" as="geometry">
            <mxPoint x="590" y="630" as="sourcePoint" />
            <mxPoint x="735" y="585" as="targetPoint" />
          </mxGeometry>
        </mxCell>
        <mxCell id="1e0iizeXlH-LscH0-QRG-64" value="" style="endArrow=none;html=1;exitX=0.5;exitY=0;exitDx=0;exitDy=0;entryX=0.5;entryY=1;entryDx=0;entryDy=0;dashed=1;" edge="1" parent="1" source="1e0iizeXlH-LscH0-QRG-57" target="1e0iizeXlH-LscH0-QRG-60">
          <mxGeometry width="50" height="50" relative="1" as="geometry">
            <mxPoint x="590" y="630" as="sourcePoint" />
            <mxPoint x="630" y="570" as="targetPoint" />
          </mxGeometry>
        </mxCell>
        <mxCell id="1e0iizeXlH-LscH0-QRG-68" value="0,N" style="text;html=1;strokeColor=none;fillColor=none;align=center;verticalAlign=middle;whiteSpace=wrap;rounded=0;" vertex="1" parent="1">
          <mxGeometry x="470" y="574.5" width="40" height="20" as="geometry" />
        </mxCell>
        <mxCell id="1e0iizeXlH-LscH0-QRG-71" value="quality_grade" style="ellipse;whiteSpace=wrap;html=1;fillColor=#f8cecc;strokeColor=#b85450;" vertex="1" parent="1">
          <mxGeometry x="732" y="564" width="110" height="40" as="geometry" />
        </mxCell>
        <mxCell id="1e0iizeXlH-LscH0-QRG-73" value="" style="endArrow=none;html=1;entryX=0;entryY=0.5;entryDx=0;entryDy=0;exitX=1;exitY=0.5;exitDx=0;exitDy=0;" edge="1" parent="1" target="1e0iizeXlH-LscH0-QRG-74" source="1e0iizeXlH-LscH0-QRG-57">
          <mxGeometry width="50" height="50" relative="1" as="geometry">
            <mxPoint x="697.25" y="658" as="sourcePoint" />
            <mxPoint x="769.75" y="633" as="targetPoint" />
          </mxGeometry>
        </mxCell>
        <mxCell id="1e0iizeXlH-LscH0-QRG-74" value="politeness_grade" style="ellipse;whiteSpace=wrap;html=1;fillColor=#f8cecc;strokeColor=#b85450;" vertex="1" parent="1">
          <mxGeometry x="750" y="612" width="126.75" height="40" as="geometry" />
        </mxCell>
        <mxCell id="1e0iizeXlH-LscH0-QRG-75" value="" style="endArrow=none;html=1;entryX=0;entryY=0.5;entryDx=0;entryDy=0;exitX=1;exitY=0.75;exitDx=0;exitDy=0;" edge="1" parent="1" target="1e0iizeXlH-LscH0-QRG-76" source="1e0iizeXlH-LscH0-QRG-57">
          <mxGeometry width="50" height="50" relative="1" as="geometry">
            <mxPoint x="697.25" y="706" as="sourcePoint" />
            <mxPoint x="769.75" y="681" as="targetPoint" />
          </mxGeometry>
        </mxCell>
        <mxCell id="1e0iizeXlH-LscH0-QRG-76" value="cost_grade" style="ellipse;whiteSpace=wrap;html=1;fillColor=#f8cecc;strokeColor=#b85450;" vertex="1" parent="1">
          <mxGeometry x="780" y="660" width="96.75" height="40" as="geometry" />
        </mxCell>
        <mxCell id="1e0iizeXlH-LscH0-QRG-89" style="edgeStyle=none;rounded=0;orthogonalLoop=1;jettySize=auto;html=1;exitX=1;exitY=0.75;exitDx=0;exitDy=0;entryX=0;entryY=0.5;entryDx=0;entryDy=0;endArrow=none;endFill=0;" edge="1" parent="1" source="1e0iizeXlH-LscH0-QRG-77" target="1e0iizeXlH-LscH0-QRG-88">
          <mxGeometry relative="1" as="geometry" />
        </mxCell>
        <mxCell id="1e0iizeXlH-LscH0-QRG-91" style="edgeStyle=none;rounded=0;orthogonalLoop=1;jettySize=auto;html=1;exitX=1;exitY=1;exitDx=0;exitDy=0;endArrow=none;endFill=0;entryX=0.5;entryY=0;entryDx=0;entryDy=0;" edge="1" parent="1" source="1e0iizeXlH-LscH0-QRG-77" target="1e0iizeXlH-LscH0-QRG-90">
          <mxGeometry relative="1" as="geometry" />
        </mxCell>
        <mxCell id="1e0iizeXlH-LscH0-QRG-105" style="edgeStyle=none;rounded=0;orthogonalLoop=1;jettySize=auto;html=1;exitX=0.5;exitY=1;exitDx=0;exitDy=0;entryX=0.5;entryY=0;entryDx=0;entryDy=0;endArrow=none;endFill=0;" edge="1" parent="1" source="1e0iizeXlH-LscH0-QRG-77" target="1e0iizeXlH-LscH0-QRG-104">
          <mxGeometry relative="1" as="geometry" />
        </mxCell>
        <mxCell id="1e0iizeXlH-LscH0-QRG-111" style="edgeStyle=none;rounded=0;orthogonalLoop=1;jettySize=auto;html=1;exitX=0.5;exitY=1;exitDx=0;exitDy=0;entryX=0.5;entryY=0;entryDx=0;entryDy=0;endArrow=none;endFill=0;" edge="1" parent="1" source="1e0iizeXlH-LscH0-QRG-77" target="1e0iizeXlH-LscH0-QRG-110">
          <mxGeometry relative="1" as="geometry" />
        </mxCell>
        <mxCell id="1e0iizeXlH-LscH0-QRG-77" value="Task" style="rounded=0;whiteSpace=wrap;html=1;fillColor=#e1d5e7;strokeColor=#9673a6;" vertex="1" parent="1">
          <mxGeometry x="690" y="770" width="110" height="60" as="geometry" />
        </mxCell>
        <mxCell id="1e0iizeXlH-LscH0-QRG-78" value="description" style="ellipse;whiteSpace=wrap;html=1;fillColor=#f8cecc;strokeColor=#b85450;" vertex="1" parent="1">
          <mxGeometry x="740" y="710" width="80" height="30" as="geometry" />
        </mxCell>
        <mxCell id="1e0iizeXlH-LscH0-QRG-79" value="&lt;u&gt;task_id&lt;/u&gt;" style="ellipse;whiteSpace=wrap;html=1;fillColor=#f8cecc;strokeColor=#b85450;" vertex="1" parent="1">
          <mxGeometry x="652" y="700" width="80" height="30" as="geometry" />
        </mxCell>
        <mxCell id="1e0iizeXlH-LscH0-QRG-80" value="" style="endArrow=none;html=1;exitX=1;exitY=1;exitDx=0;exitDy=0;entryX=0.25;entryY=0;entryDx=0;entryDy=0;" edge="1" parent="1" source="1e0iizeXlH-LscH0-QRG-79" target="1e0iizeXlH-LscH0-QRG-77">
          <mxGeometry width="50" height="50" relative="1" as="geometry">
            <mxPoint x="680" y="770" as="sourcePoint" />
            <mxPoint x="650" y="910" as="targetPoint" />
          </mxGeometry>
        </mxCell>
        <mxCell id="1e0iizeXlH-LscH0-QRG-81" value="" style="endArrow=none;html=1;entryX=0;entryY=1;entryDx=0;entryDy=0;exitX=0.75;exitY=0;exitDx=0;exitDy=0;" edge="1" parent="1" source="1e0iizeXlH-LscH0-QRG-77" target="1e0iizeXlH-LscH0-QRG-83">
          <mxGeometry width="50" height="50" relative="1" as="geometry">
            <mxPoint x="720" y="820" as="sourcePoint" />
            <mxPoint x="865" y="775" as="targetPoint" />
          </mxGeometry>
        </mxCell>
        <mxCell id="1e0iizeXlH-LscH0-QRG-82" value="" style="endArrow=none;html=1;exitX=0.5;exitY=0;exitDx=0;exitDy=0;entryX=0.5;entryY=1;entryDx=0;entryDy=0;" edge="1" parent="1" source="1e0iizeXlH-LscH0-QRG-77" target="1e0iizeXlH-LscH0-QRG-78">
          <mxGeometry width="50" height="50" relative="1" as="geometry">
            <mxPoint x="720" y="820" as="sourcePoint" />
            <mxPoint x="760" y="760" as="targetPoint" />
          </mxGeometry>
        </mxCell>
        <mxCell id="1e0iizeXlH-LscH0-QRG-83" value="name" style="ellipse;whiteSpace=wrap;html=1;fillColor=#f8cecc;strokeColor=#b85450;" vertex="1" parent="1">
          <mxGeometry x="820" y="730" width="60" height="30" as="geometry" />
        </mxCell>
        <mxCell id="1e0iizeXlH-LscH0-QRG-84" value="" style="endArrow=none;html=1;entryX=0;entryY=0.5;entryDx=0;entryDy=0;exitX=1;exitY=0.25;exitDx=0;exitDy=0;" edge="1" parent="1" source="1e0iizeXlH-LscH0-QRG-77" target="1e0iizeXlH-LscH0-QRG-85">
          <mxGeometry width="50" height="50" relative="1" as="geometry">
            <mxPoint x="827.25" y="848" as="sourcePoint" />
            <mxPoint x="899.75" y="823" as="targetPoint" />
          </mxGeometry>
        </mxCell>
        <mxCell id="1e0iizeXlH-LscH0-QRG-85" value="begin_time" style="ellipse;whiteSpace=wrap;html=1;fillColor=#f8cecc;strokeColor=#b85450;" vertex="1" parent="1">
          <mxGeometry x="842" y="770" width="96.75" height="30" as="geometry" />
        </mxCell>
        <mxCell id="1e0iizeXlH-LscH0-QRG-86" value="" style="endArrow=none;html=1;entryX=0;entryY=0.5;entryDx=0;entryDy=0;exitX=1;exitY=0.5;exitDx=0;exitDy=0;dashed=1;" edge="1" parent="1" source="1e0iizeXlH-LscH0-QRG-77" target="1e0iizeXlH-LscH0-QRG-87">
          <mxGeometry width="50" height="50" relative="1" as="geometry">
            <mxPoint x="827.25" y="896" as="sourcePoint" />
            <mxPoint x="899.75" y="871" as="targetPoint" />
          </mxGeometry>
        </mxCell>
        <mxCell id="1e0iizeXlH-LscH0-QRG-87" value="end_time" style="ellipse;whiteSpace=wrap;html=1;fillColor=#f8cecc;strokeColor=#b85450;" vertex="1" parent="1">
          <mxGeometry x="850" y="810" width="80" height="30" as="geometry" />
        </mxCell>
        <mxCell id="1e0iizeXlH-LscH0-QRG-88" value="place" style="ellipse;whiteSpace=wrap;html=1;fillColor=#f8cecc;strokeColor=#b85450;" vertex="1" parent="1">
          <mxGeometry x="878.75" y="850" width="60" height="30" as="geometry" />
        </mxCell>
        <mxCell id="1e0iizeXlH-LscH0-QRG-90" value="task_status" style="ellipse;whiteSpace=wrap;html=1;fillColor=#f8cecc;strokeColor=#b85450;" vertex="1" parent="1">
          <mxGeometry x="850" y="890" width="93" height="30" as="geometry" />
        </mxCell>
        <mxCell id="1e0iizeXlH-LscH0-QRG-94" style="edgeStyle=none;rounded=0;orthogonalLoop=1;jettySize=auto;html=1;exitX=1;exitY=0.5;exitDx=0;exitDy=0;entryX=0;entryY=0.25;entryDx=0;entryDy=0;endArrow=none;endFill=0;" edge="1" parent="1" source="1e0iizeXlH-LscH0-QRG-92" target="1e0iizeXlH-LscH0-QRG-77">
          <mxGeometry relative="1" as="geometry" />
        </mxCell>
        <mxCell id="1e0iizeXlH-LscH0-QRG-92" value="posts" style="rhombus;whiteSpace=wrap;html=1;fillColor=#fff2cc;strokeColor=#d6b656;" vertex="1" parent="1">
          <mxGeometry x="430" y="624" width="80" height="60" as="geometry" />
        </mxCell>
        <mxCell id="1e0iizeXlH-LscH0-QRG-95" value="0,N" style="text;html=1;strokeColor=none;fillColor=none;align=center;verticalAlign=middle;whiteSpace=wrap;rounded=0;" vertex="1" parent="1">
          <mxGeometry x="494" y="630" width="40" height="20" as="geometry" />
        </mxCell>
        <mxCell id="1e0iizeXlH-LscH0-QRG-96" value="1,1" style="text;html=1;strokeColor=none;fillColor=none;align=center;verticalAlign=middle;whiteSpace=wrap;rounded=0;" vertex="1" parent="1">
          <mxGeometry x="410" y="625" width="40" height="20" as="geometry" />
        </mxCell>
        <mxCell id="1e0iizeXlH-LscH0-QRG-98" style="edgeStyle=none;rounded=0;orthogonalLoop=1;jettySize=auto;html=1;exitX=1;exitY=0.5;exitDx=0;exitDy=0;entryX=0;entryY=0.5;entryDx=0;entryDy=0;endArrow=none;endFill=0;" edge="1" parent="1" source="1e0iizeXlH-LscH0-QRG-97" target="1e0iizeXlH-LscH0-QRG-77">
          <mxGeometry relative="1" as="geometry" />
        </mxCell>
        <mxCell id="1e0iizeXlH-LscH0-QRG-99" style="edgeStyle=none;rounded=0;orthogonalLoop=1;jettySize=auto;html=1;exitX=0;exitY=0.5;exitDx=0;exitDy=0;entryX=1;entryY=1;entryDx=0;entryDy=0;endArrow=none;endFill=0;" edge="1" parent="1" source="1e0iizeXlH-LscH0-QRG-97" target="Dc6S5-3U-Lf79-AnV3NW-4">
          <mxGeometry relative="1" as="geometry" />
        </mxCell>
        <mxCell id="1e0iizeXlH-LscH0-QRG-97" value="performs" style="rhombus;whiteSpace=wrap;html=1;fillColor=#fff2cc;strokeColor=#d6b656;" vertex="1" parent="1">
          <mxGeometry x="460" y="680" width="80" height="60" as="geometry" />
        </mxCell>
        <mxCell id="1e0iizeXlH-LscH0-QRG-100" value="1,1" style="text;html=1;strokeColor=none;fillColor=none;align=center;verticalAlign=middle;whiteSpace=wrap;rounded=0;" vertex="1" parent="1">
          <mxGeometry x="440" y="684" width="40" height="20" as="geometry" />
        </mxCell>
        <mxCell id="1e0iizeXlH-LscH0-QRG-101" value="0,N" style="text;html=1;strokeColor=none;fillColor=none;align=center;verticalAlign=middle;whiteSpace=wrap;rounded=0;" vertex="1" parent="1">
          <mxGeometry x="530" y="690" width="40" height="20" as="geometry" />
        </mxCell>
        <mxCell id="1e0iizeXlH-LscH0-QRG-116" style="edgeStyle=none;rounded=0;orthogonalLoop=1;jettySize=auto;html=1;exitX=0.75;exitY=1;exitDx=0;exitDy=0;entryX=0;entryY=0;entryDx=0;entryDy=0;endArrow=none;endFill=0;" edge="1" parent="1" source="1e0iizeXlH-LscH0-QRG-103" target="1e0iizeXlH-LscH0-QRG-115">
          <mxGeometry relative="1" as="geometry" />
        </mxCell>
        <mxCell id="1e0iizeXlH-LscH0-QRG-118" style="edgeStyle=none;rounded=0;orthogonalLoop=1;jettySize=auto;html=1;exitX=0.25;exitY=1;exitDx=0;exitDy=0;entryX=0.5;entryY=0;entryDx=0;entryDy=0;endArrow=none;endFill=0;" edge="1" parent="1" source="1e0iizeXlH-LscH0-QRG-103" target="1e0iizeXlH-LscH0-QRG-117">
          <mxGeometry relative="1" as="geometry" />
        </mxCell>
        <mxCell id="1e0iizeXlH-LscH0-QRG-120" style="edgeStyle=none;rounded=0;orthogonalLoop=1;jettySize=auto;html=1;exitX=0.5;exitY=1;exitDx=0;exitDy=0;entryX=0.5;entryY=0;entryDx=0;entryDy=0;endArrow=none;endFill=0;dashed=1;" edge="1" parent="1" source="1e0iizeXlH-LscH0-QRG-103" target="1e0iizeXlH-LscH0-QRG-119">
          <mxGeometry relative="1" as="geometry" />
        </mxCell>
        <mxCell id="1e0iizeXlH-LscH0-QRG-103" value="Category" style="rounded=0;whiteSpace=wrap;html=1;fillColor=#e1d5e7;strokeColor=#9673a6;" vertex="1" parent="1">
          <mxGeometry x="807" y="970" width="110" height="60" as="geometry" />
        </mxCell>
        <mxCell id="1e0iizeXlH-LscH0-QRG-106" style="edgeStyle=none;rounded=0;orthogonalLoop=1;jettySize=auto;html=1;exitX=0.5;exitY=1;exitDx=0;exitDy=0;entryX=0.5;entryY=0;entryDx=0;entryDy=0;endArrow=none;endFill=0;" edge="1" parent="1" source="1e0iizeXlH-LscH0-QRG-104" target="1e0iizeXlH-LscH0-QRG-103">
          <mxGeometry relative="1" as="geometry" />
        </mxCell>
        <mxCell id="1e0iizeXlH-LscH0-QRG-104" value="have" style="rhombus;whiteSpace=wrap;html=1;fillColor=#fff2cc;strokeColor=#d6b656;" vertex="1" parent="1">
          <mxGeometry x="745" y="870" width="80" height="60" as="geometry" />
        </mxCell>
        <mxCell id="1e0iizeXlH-LscH0-QRG-107" value="0,N" style="text;html=1;strokeColor=none;fillColor=none;align=center;verticalAlign=middle;whiteSpace=wrap;rounded=0;" vertex="1" parent="1">
          <mxGeometry x="780" y="850" width="40" height="20" as="geometry" />
        </mxCell>
        <mxCell id="1e0iizeXlH-LscH0-QRG-108" value="1,1" style="text;html=1;strokeColor=none;fillColor=none;align=center;verticalAlign=middle;whiteSpace=wrap;rounded=0;" vertex="1" parent="1">
          <mxGeometry x="802" y="920" width="40" height="20" as="geometry" />
        </mxCell>
        <mxCell id="1e0iizeXlH-LscH0-QRG-109" value="Estimated Cost" style="rounded=0;whiteSpace=wrap;html=1;fillColor=#e1d5e7;strokeColor=#9673a6;" vertex="1" parent="1">
          <mxGeometry x="670" y="970" width="110" height="60" as="geometry" />
        </mxCell>
        <mxCell id="1e0iizeXlH-LscH0-QRG-112" style="edgeStyle=none;rounded=0;orthogonalLoop=1;jettySize=auto;html=1;exitX=0.5;exitY=1;exitDx=0;exitDy=0;entryX=0.5;entryY=0;entryDx=0;entryDy=0;endArrow=none;endFill=0;" edge="1" parent="1" source="1e0iizeXlH-LscH0-QRG-110" target="1e0iizeXlH-LscH0-QRG-109">
          <mxGeometry relative="1" as="geometry" />
        </mxCell>
        <mxCell id="1e0iizeXlH-LscH0-QRG-110" value="have" style="rhombus;whiteSpace=wrap;html=1;fillColor=#fff2cc;strokeColor=#d6b656;" vertex="1" parent="1">
          <mxGeometry x="660" y="875" width="80" height="60" as="geometry" />
        </mxCell>
        <mxCell id="1e0iizeXlH-LscH0-QRG-113" value="0,N" style="text;html=1;strokeColor=none;fillColor=none;align=center;verticalAlign=middle;whiteSpace=wrap;rounded=0;" vertex="1" parent="1">
          <mxGeometry x="670" y="850" width="40" height="20" as="geometry" />
        </mxCell>
        <mxCell id="1e0iizeXlH-LscH0-QRG-114" value="1,1" style="text;html=1;strokeColor=none;fillColor=none;align=center;verticalAlign=middle;whiteSpace=wrap;rounded=0;" vertex="1" parent="1">
          <mxGeometry x="672" y="945" width="40" height="20" as="geometry" />
        </mxCell>
        <mxCell id="1e0iizeXlH-LscH0-QRG-115" value="&lt;u&gt;category_id&lt;/u&gt;" style="ellipse;whiteSpace=wrap;html=1;fillColor=#f8cecc;strokeColor=#b85450;" vertex="1" parent="1">
          <mxGeometry x="897" y="1060" width="93" height="30" as="geometry" />
        </mxCell>
        <mxCell id="1e0iizeXlH-LscH0-QRG-117" value="name" style="ellipse;whiteSpace=wrap;html=1;fillColor=#f8cecc;strokeColor=#b85450;" vertex="1" parent="1">
          <mxGeometry x="780" y="1060" width="68" height="30" as="geometry" />
        </mxCell>
        <mxCell id="1e0iizeXlH-LscH0-QRG-119" value="description" style="ellipse;whiteSpace=wrap;html=1;fillColor=#f8cecc;strokeColor=#b85450;" vertex="1" parent="1">
          <mxGeometry x="827" y="1090" width="93" height="30" as="geometry" />
        </mxCell>
      </root>
    </mxGraphModel>
  </diagram>
  <diagram id="P_nQdIxv8pO_g3UBn383" name="Страница 2">
    <mxGraphModel dx="2032" dy="687" grid="1" gridSize="9" guides="1" tooltips="1" connect="1" arrows="1" fold="1" page="1" pageScale="1" pageWidth="827" pageHeight="1169" math="0" shadow="0">
      <root>
        <mxCell id="R1SRNepr17xu-sR1Fzx6-0" />
        <mxCell id="R1SRNepr17xu-sR1Fzx6-1" parent="R1SRNepr17xu-sR1Fzx6-0" />
        <mxCell id="EkFjCymc94_KOpbJBFxo-0" value="Service_Delivery" style="shape=table;startSize=30;container=1;collapsible=1;childLayout=tableLayout;fixedRows=1;rowLines=0;fontStyle=1;align=center;resizeLast=1;fillColor=#f5f5f5;strokeColor=#666666;fontColor=#333333;" vertex="1" parent="R1SRNepr17xu-sR1Fzx6-1">
          <mxGeometry x="-360" y="252" width="180" height="130" as="geometry" />
        </mxCell>
        <mxCell id="EkFjCymc94_KOpbJBFxo-1" value="" style="shape=partialRectangle;collapsible=0;dropTarget=0;pointerEvents=0;fillColor=none;top=0;left=0;bottom=1;right=0;points=[[0,0.5],[1,0.5]];portConstraint=eastwest;" vertex="1" parent="EkFjCymc94_KOpbJBFxo-0">
          <mxGeometry y="30" width="180" height="30" as="geometry" />
        </mxCell>
        <mxCell id="EkFjCymc94_KOpbJBFxo-2" value="PK" style="shape=partialRectangle;connectable=0;fillColor=none;top=0;left=0;bottom=0;right=0;fontStyle=1;overflow=hidden;" vertex="1" parent="EkFjCymc94_KOpbJBFxo-1">
          <mxGeometry width="30" height="30" as="geometry" />
        </mxCell>
        <mxCell id="EkFjCymc94_KOpbJBFxo-3" value="service_delivery_id" style="shape=partialRectangle;connectable=0;fillColor=none;top=0;left=0;bottom=0;right=0;align=left;spacingLeft=6;fontStyle=5;overflow=hidden;" vertex="1" parent="EkFjCymc94_KOpbJBFxo-1">
          <mxGeometry x="30" width="150" height="30" as="geometry" />
        </mxCell>
        <mxCell id="EkFjCymc94_KOpbJBFxo-4" value="" style="shape=partialRectangle;collapsible=0;dropTarget=0;pointerEvents=0;fillColor=none;top=0;left=0;bottom=0;right=0;points=[[0,0.5],[1,0.5]];portConstraint=eastwest;" vertex="1" parent="EkFjCymc94_KOpbJBFxo-0">
          <mxGeometry y="60" width="180" height="30" as="geometry" />
        </mxCell>
        <mxCell id="EkFjCymc94_KOpbJBFxo-5" value="" style="shape=partialRectangle;connectable=0;fillColor=none;top=0;left=0;bottom=0;right=0;editable=1;overflow=hidden;" vertex="1" parent="EkFjCymc94_KOpbJBFxo-4">
          <mxGeometry width="30" height="30" as="geometry" />
        </mxCell>
        <mxCell id="EkFjCymc94_KOpbJBFxo-6" value="name" style="shape=partialRectangle;connectable=0;fillColor=none;top=0;left=0;bottom=0;right=0;align=left;spacingLeft=6;overflow=hidden;" vertex="1" parent="EkFjCymc94_KOpbJBFxo-4">
          <mxGeometry x="30" width="150" height="30" as="geometry" />
        </mxCell>
        <mxCell id="EkFjCymc94_KOpbJBFxo-7" value="" style="shape=partialRectangle;collapsible=0;dropTarget=0;pointerEvents=0;fillColor=none;top=0;left=0;bottom=0;right=0;points=[[0,0.5],[1,0.5]];portConstraint=eastwest;" vertex="1" parent="EkFjCymc94_KOpbJBFxo-0">
          <mxGeometry y="90" width="180" height="30" as="geometry" />
        </mxCell>
        <mxCell id="EkFjCymc94_KOpbJBFxo-8" value="" style="shape=partialRectangle;connectable=0;fillColor=none;top=0;left=0;bottom=0;right=0;editable=1;overflow=hidden;" vertex="1" parent="EkFjCymc94_KOpbJBFxo-7">
          <mxGeometry width="30" height="30" as="geometry" />
        </mxCell>
        <mxCell id="EkFjCymc94_KOpbJBFxo-9" value="phone" style="shape=partialRectangle;connectable=0;fillColor=none;top=0;left=0;bottom=0;right=0;align=left;spacingLeft=6;overflow=hidden;" vertex="1" parent="EkFjCymc94_KOpbJBFxo-7">
          <mxGeometry x="30" width="150" height="30" as="geometry" />
        </mxCell>
        <mxCell id="EkFjCymc94_KOpbJBFxo-13" value="Delivery" style="shape=table;startSize=30;container=1;collapsible=1;childLayout=tableLayout;fixedRows=1;rowLines=0;fontStyle=1;align=center;resizeLast=1;fillColor=#f5f5f5;strokeColor=#666666;fontColor=#333333;" vertex="1" parent="R1SRNepr17xu-sR1Fzx6-1">
          <mxGeometry x="144" y="252" width="180" height="130" as="geometry" />
        </mxCell>
        <mxCell id="EkFjCymc94_KOpbJBFxo-14" value="" style="shape=partialRectangle;collapsible=0;dropTarget=0;pointerEvents=0;fillColor=none;top=0;left=0;bottom=1;right=0;points=[[0,0.5],[1,0.5]];portConstraint=eastwest;" vertex="1" parent="EkFjCymc94_KOpbJBFxo-13">
          <mxGeometry y="30" width="180" height="30" as="geometry" />
        </mxCell>
        <mxCell id="EkFjCymc94_KOpbJBFxo-15" value="PK" style="shape=partialRectangle;connectable=0;fillColor=none;top=0;left=0;bottom=0;right=0;fontStyle=1;overflow=hidden;" vertex="1" parent="EkFjCymc94_KOpbJBFxo-14">
          <mxGeometry width="30" height="30" as="geometry" />
        </mxCell>
        <mxCell id="EkFjCymc94_KOpbJBFxo-16" value="delivery_id" style="shape=partialRectangle;connectable=0;fillColor=none;top=0;left=0;bottom=0;right=0;align=left;spacingLeft=6;fontStyle=5;overflow=hidden;" vertex="1" parent="EkFjCymc94_KOpbJBFxo-14">
          <mxGeometry x="30" width="150" height="30" as="geometry" />
        </mxCell>
        <mxCell id="EkFjCymc94_KOpbJBFxo-17" value="" style="shape=partialRectangle;collapsible=0;dropTarget=0;pointerEvents=0;fillColor=none;top=0;left=0;bottom=0;right=0;points=[[0,0.5],[1,0.5]];portConstraint=eastwest;" vertex="1" parent="EkFjCymc94_KOpbJBFxo-13">
          <mxGeometry y="60" width="180" height="30" as="geometry" />
        </mxCell>
        <mxCell id="EkFjCymc94_KOpbJBFxo-18" value="" style="shape=partialRectangle;connectable=0;fillColor=none;top=0;left=0;bottom=0;right=0;editable=1;overflow=hidden;" vertex="1" parent="EkFjCymc94_KOpbJBFxo-17">
          <mxGeometry width="30" height="30" as="geometry" />
        </mxCell>
        <mxCell id="EkFjCymc94_KOpbJBFxo-19" value="kind" style="shape=partialRectangle;connectable=0;fillColor=none;top=0;left=0;bottom=0;right=0;align=left;spacingLeft=6;overflow=hidden;" vertex="1" parent="EkFjCymc94_KOpbJBFxo-17">
          <mxGeometry x="30" width="150" height="30" as="geometry" />
        </mxCell>
        <mxCell id="EkFjCymc94_KOpbJBFxo-20" value="" style="shape=partialRectangle;collapsible=0;dropTarget=0;pointerEvents=0;fillColor=none;top=0;left=0;bottom=0;right=0;points=[[0,0.5],[1,0.5]];portConstraint=eastwest;" vertex="1" parent="EkFjCymc94_KOpbJBFxo-13">
          <mxGeometry y="90" width="180" height="30" as="geometry" />
        </mxCell>
        <mxCell id="EkFjCymc94_KOpbJBFxo-21" value="" style="shape=partialRectangle;connectable=0;fillColor=none;top=0;left=0;bottom=0;right=0;editable=1;overflow=hidden;" vertex="1" parent="EkFjCymc94_KOpbJBFxo-20">
          <mxGeometry width="30" height="30" as="geometry" />
        </mxCell>
        <mxCell id="EkFjCymc94_KOpbJBFxo-22" value="date" style="shape=partialRectangle;connectable=0;fillColor=none;top=0;left=0;bottom=0;right=0;align=left;spacingLeft=6;overflow=hidden;" vertex="1" parent="EkFjCymc94_KOpbJBFxo-20">
          <mxGeometry x="30" width="150" height="30" as="geometry" />
        </mxCell>
        <mxCell id="EkFjCymc94_KOpbJBFxo-26" value="Product" style="shape=table;startSize=30;container=1;collapsible=1;childLayout=tableLayout;fixedRows=1;rowLines=0;fontStyle=1;align=center;resizeLast=1;fillColor=#f5f5f5;strokeColor=#666666;fontColor=#333333;" vertex="1" parent="R1SRNepr17xu-sR1Fzx6-1">
          <mxGeometry x="-360" y="468" width="180" height="250" as="geometry" />
        </mxCell>
        <mxCell id="EkFjCymc94_KOpbJBFxo-27" value="" style="shape=partialRectangle;collapsible=0;dropTarget=0;pointerEvents=0;fillColor=none;top=0;left=0;bottom=1;right=0;points=[[0,0.5],[1,0.5]];portConstraint=eastwest;" vertex="1" parent="EkFjCymc94_KOpbJBFxo-26">
          <mxGeometry y="30" width="180" height="30" as="geometry" />
        </mxCell>
        <mxCell id="EkFjCymc94_KOpbJBFxo-28" value="PK" style="shape=partialRectangle;connectable=0;fillColor=none;top=0;left=0;bottom=0;right=0;fontStyle=1;overflow=hidden;" vertex="1" parent="EkFjCymc94_KOpbJBFxo-27">
          <mxGeometry width="30" height="30" as="geometry" />
        </mxCell>
        <mxCell id="EkFjCymc94_KOpbJBFxo-29" value="product_id" style="shape=partialRectangle;connectable=0;fillColor=none;top=0;left=0;bottom=0;right=0;align=left;spacingLeft=6;fontStyle=5;overflow=hidden;" vertex="1" parent="EkFjCymc94_KOpbJBFxo-27">
          <mxGeometry x="30" width="150" height="30" as="geometry" />
        </mxCell>
        <mxCell id="EkFjCymc94_KOpbJBFxo-30" value="" style="shape=partialRectangle;collapsible=0;dropTarget=0;pointerEvents=0;fillColor=none;top=0;left=0;bottom=0;right=0;points=[[0,0.5],[1,0.5]];portConstraint=eastwest;" vertex="1" parent="EkFjCymc94_KOpbJBFxo-26">
          <mxGeometry y="60" width="180" height="30" as="geometry" />
        </mxCell>
        <mxCell id="EkFjCymc94_KOpbJBFxo-31" value="" style="shape=partialRectangle;connectable=0;fillColor=none;top=0;left=0;bottom=0;right=0;editable=1;overflow=hidden;" vertex="1" parent="EkFjCymc94_KOpbJBFxo-30">
          <mxGeometry width="30" height="30" as="geometry" />
        </mxCell>
        <mxCell id="EkFjCymc94_KOpbJBFxo-32" value="name" style="shape=partialRectangle;connectable=0;fillColor=none;top=0;left=0;bottom=0;right=0;align=left;spacingLeft=6;overflow=hidden;" vertex="1" parent="EkFjCymc94_KOpbJBFxo-30">
          <mxGeometry x="30" width="150" height="30" as="geometry" />
        </mxCell>
        <mxCell id="EkFjCymc94_KOpbJBFxo-33" value="" style="shape=partialRectangle;collapsible=0;dropTarget=0;pointerEvents=0;fillColor=none;top=0;left=0;bottom=0;right=0;points=[[0,0.5],[1,0.5]];portConstraint=eastwest;" vertex="1" parent="EkFjCymc94_KOpbJBFxo-26">
          <mxGeometry y="90" width="180" height="30" as="geometry" />
        </mxCell>
        <mxCell id="EkFjCymc94_KOpbJBFxo-34" value="" style="shape=partialRectangle;connectable=0;fillColor=none;top=0;left=0;bottom=0;right=0;editable=1;overflow=hidden;" vertex="1" parent="EkFjCymc94_KOpbJBFxo-33">
          <mxGeometry width="30" height="30" as="geometry" />
        </mxCell>
        <mxCell id="EkFjCymc94_KOpbJBFxo-35" value="description" style="shape=partialRectangle;connectable=0;fillColor=none;top=0;left=0;bottom=0;right=0;align=left;spacingLeft=6;overflow=hidden;" vertex="1" parent="EkFjCymc94_KOpbJBFxo-33">
          <mxGeometry x="30" width="150" height="30" as="geometry" />
        </mxCell>
        <mxCell id="EkFjCymc94_KOpbJBFxo-36" value="" style="shape=partialRectangle;collapsible=0;dropTarget=0;pointerEvents=0;fillColor=none;top=0;left=0;bottom=0;right=0;points=[[0,0.5],[1,0.5]];portConstraint=eastwest;" vertex="1" parent="EkFjCymc94_KOpbJBFxo-26">
          <mxGeometry y="120" width="180" height="30" as="geometry" />
        </mxCell>
        <mxCell id="EkFjCymc94_KOpbJBFxo-37" value="" style="shape=partialRectangle;connectable=0;fillColor=none;top=0;left=0;bottom=0;right=0;editable=1;overflow=hidden;" vertex="1" parent="EkFjCymc94_KOpbJBFxo-36">
          <mxGeometry width="30" height="30" as="geometry" />
        </mxCell>
        <mxCell id="EkFjCymc94_KOpbJBFxo-38" value="photo" style="shape=partialRectangle;connectable=0;fillColor=none;top=0;left=0;bottom=0;right=0;align=left;spacingLeft=6;overflow=hidden;" vertex="1" parent="EkFjCymc94_KOpbJBFxo-36">
          <mxGeometry x="30" width="150" height="30" as="geometry" />
        </mxCell>
        <mxCell id="bF6ccuWN5wDN4h8pi0ir-0" value="" style="shape=partialRectangle;collapsible=0;dropTarget=0;pointerEvents=0;fillColor=none;top=0;left=0;bottom=0;right=0;points=[[0,0.5],[1,0.5]];portConstraint=eastwest;" vertex="1" parent="EkFjCymc94_KOpbJBFxo-26">
          <mxGeometry y="150" width="180" height="30" as="geometry" />
        </mxCell>
        <mxCell id="bF6ccuWN5wDN4h8pi0ir-1" value="" style="shape=partialRectangle;connectable=0;fillColor=none;top=0;left=0;bottom=0;right=0;editable=1;overflow=hidden;" vertex="1" parent="bF6ccuWN5wDN4h8pi0ir-0">
          <mxGeometry width="30" height="30" as="geometry" />
        </mxCell>
        <mxCell id="bF6ccuWN5wDN4h8pi0ir-2" value="cost" style="shape=partialRectangle;connectable=0;fillColor=none;top=0;left=0;bottom=0;right=0;align=left;spacingLeft=6;overflow=hidden;" vertex="1" parent="bF6ccuWN5wDN4h8pi0ir-0">
          <mxGeometry x="30" width="150" height="30" as="geometry" />
        </mxCell>
        <mxCell id="bF6ccuWN5wDN4h8pi0ir-3" value="" style="shape=partialRectangle;collapsible=0;dropTarget=0;pointerEvents=0;fillColor=none;top=0;left=0;bottom=0;right=0;points=[[0,0.5],[1,0.5]];portConstraint=eastwest;" vertex="1" parent="EkFjCymc94_KOpbJBFxo-26">
          <mxGeometry y="180" width="180" height="30" as="geometry" />
        </mxCell>
        <mxCell id="bF6ccuWN5wDN4h8pi0ir-4" value="" style="shape=partialRectangle;connectable=0;fillColor=none;top=0;left=0;bottom=0;right=0;editable=1;overflow=hidden;" vertex="1" parent="bF6ccuWN5wDN4h8pi0ir-3">
          <mxGeometry width="30" height="30" as="geometry" />
        </mxCell>
        <mxCell id="bF6ccuWN5wDN4h8pi0ir-5" value="availability" style="shape=partialRectangle;connectable=0;fillColor=none;top=0;left=0;bottom=0;right=0;align=left;spacingLeft=6;overflow=hidden;" vertex="1" parent="bF6ccuWN5wDN4h8pi0ir-3">
          <mxGeometry x="30" width="150" height="30" as="geometry" />
        </mxCell>
        <mxCell id="bF6ccuWN5wDN4h8pi0ir-6" value="" style="shape=partialRectangle;collapsible=0;dropTarget=0;pointerEvents=0;fillColor=none;top=0;left=0;bottom=0;right=0;points=[[0,0.5],[1,0.5]];portConstraint=eastwest;" vertex="1" parent="EkFjCymc94_KOpbJBFxo-26">
          <mxGeometry y="210" width="180" height="30" as="geometry" />
        </mxCell>
        <mxCell id="bF6ccuWN5wDN4h8pi0ir-7" value="" style="shape=partialRectangle;connectable=0;fillColor=none;top=0;left=0;bottom=0;right=0;editable=1;overflow=hidden;" vertex="1" parent="bF6ccuWN5wDN4h8pi0ir-6">
          <mxGeometry width="30" height="30" as="geometry" />
        </mxCell>
        <mxCell id="bF6ccuWN5wDN4h8pi0ir-8" value="rating" style="shape=partialRectangle;connectable=0;fillColor=none;top=0;left=0;bottom=0;right=0;align=left;spacingLeft=6;overflow=hidden;" vertex="1" parent="bF6ccuWN5wDN4h8pi0ir-6">
          <mxGeometry x="30" width="150" height="30" as="geometry" />
        </mxCell>
        <mxCell id="EkFjCymc94_KOpbJBFxo-39" value="Comment" style="shape=table;startSize=30;container=1;collapsible=1;childLayout=tableLayout;fixedRows=1;rowLines=0;fontStyle=1;align=center;resizeLast=1;fillColor=#f5f5f5;strokeColor=#666666;fontColor=#333333;" vertex="1" parent="R1SRNepr17xu-sR1Fzx6-1">
          <mxGeometry x="144" y="720" width="180" height="190" as="geometry" />
        </mxCell>
        <mxCell id="EkFjCymc94_KOpbJBFxo-40" value="" style="shape=partialRectangle;collapsible=0;dropTarget=0;pointerEvents=0;fillColor=none;top=0;left=0;bottom=1;right=0;points=[[0,0.5],[1,0.5]];portConstraint=eastwest;" vertex="1" parent="EkFjCymc94_KOpbJBFxo-39">
          <mxGeometry y="30" width="180" height="30" as="geometry" />
        </mxCell>
        <mxCell id="EkFjCymc94_KOpbJBFxo-41" value="PK" style="shape=partialRectangle;connectable=0;fillColor=none;top=0;left=0;bottom=0;right=0;fontStyle=1;overflow=hidden;" vertex="1" parent="EkFjCymc94_KOpbJBFxo-40">
          <mxGeometry width="30" height="30" as="geometry" />
        </mxCell>
        <mxCell id="EkFjCymc94_KOpbJBFxo-42" value="comment_id" style="shape=partialRectangle;connectable=0;fillColor=none;top=0;left=0;bottom=0;right=0;align=left;spacingLeft=6;fontStyle=5;overflow=hidden;" vertex="1" parent="EkFjCymc94_KOpbJBFxo-40">
          <mxGeometry x="30" width="150" height="30" as="geometry" />
        </mxCell>
        <mxCell id="EkFjCymc94_KOpbJBFxo-43" value="" style="shape=partialRectangle;collapsible=0;dropTarget=0;pointerEvents=0;fillColor=none;top=0;left=0;bottom=0;right=0;points=[[0,0.5],[1,0.5]];portConstraint=eastwest;" vertex="1" parent="EkFjCymc94_KOpbJBFxo-39">
          <mxGeometry y="60" width="180" height="30" as="geometry" />
        </mxCell>
        <mxCell id="EkFjCymc94_KOpbJBFxo-44" value="" style="shape=partialRectangle;connectable=0;fillColor=none;top=0;left=0;bottom=0;right=0;editable=1;overflow=hidden;" vertex="1" parent="EkFjCymc94_KOpbJBFxo-43">
          <mxGeometry width="30" height="30" as="geometry" />
        </mxCell>
        <mxCell id="EkFjCymc94_KOpbJBFxo-45" value="text" style="shape=partialRectangle;connectable=0;fillColor=none;top=0;left=0;bottom=0;right=0;align=left;spacingLeft=6;overflow=hidden;" vertex="1" parent="EkFjCymc94_KOpbJBFxo-43">
          <mxGeometry x="30" width="150" height="30" as="geometry" />
        </mxCell>
        <mxCell id="EkFjCymc94_KOpbJBFxo-46" value="" style="shape=partialRectangle;collapsible=0;dropTarget=0;pointerEvents=0;fillColor=none;top=0;left=0;bottom=0;right=0;points=[[0,0.5],[1,0.5]];portConstraint=eastwest;" vertex="1" parent="EkFjCymc94_KOpbJBFxo-39">
          <mxGeometry y="90" width="180" height="30" as="geometry" />
        </mxCell>
        <mxCell id="EkFjCymc94_KOpbJBFxo-47" value="" style="shape=partialRectangle;connectable=0;fillColor=none;top=0;left=0;bottom=0;right=0;editable=1;overflow=hidden;" vertex="1" parent="EkFjCymc94_KOpbJBFxo-46">
          <mxGeometry width="30" height="30" as="geometry" />
        </mxCell>
        <mxCell id="EkFjCymc94_KOpbJBFxo-48" value="photo" style="shape=partialRectangle;connectable=0;fillColor=none;top=0;left=0;bottom=0;right=0;align=left;spacingLeft=6;overflow=hidden;" vertex="1" parent="EkFjCymc94_KOpbJBFxo-46">
          <mxGeometry x="30" width="150" height="30" as="geometry" />
        </mxCell>
        <mxCell id="EkFjCymc94_KOpbJBFxo-49" value="" style="shape=partialRectangle;collapsible=0;dropTarget=0;pointerEvents=0;fillColor=none;top=0;left=0;bottom=0;right=0;points=[[0,0.5],[1,0.5]];portConstraint=eastwest;" vertex="1" parent="EkFjCymc94_KOpbJBFxo-39">
          <mxGeometry y="120" width="180" height="30" as="geometry" />
        </mxCell>
        <mxCell id="EkFjCymc94_KOpbJBFxo-50" value="" style="shape=partialRectangle;connectable=0;fillColor=none;top=0;left=0;bottom=0;right=0;editable=1;overflow=hidden;" vertex="1" parent="EkFjCymc94_KOpbJBFxo-49">
          <mxGeometry width="30" height="30" as="geometry" />
        </mxCell>
        <mxCell id="EkFjCymc94_KOpbJBFxo-51" value="date" style="shape=partialRectangle;connectable=0;fillColor=none;top=0;left=0;bottom=0;right=0;align=left;spacingLeft=6;overflow=hidden;" vertex="1" parent="EkFjCymc94_KOpbJBFxo-49">
          <mxGeometry x="30" width="150" height="30" as="geometry" />
        </mxCell>
        <mxCell id="FyCBtOwuz3_LG9_jGdX4-0" value="" style="shape=partialRectangle;collapsible=0;dropTarget=0;pointerEvents=0;fillColor=none;top=0;left=0;bottom=0;right=0;points=[[0,0.5],[1,0.5]];portConstraint=eastwest;" vertex="1" parent="EkFjCymc94_KOpbJBFxo-39">
          <mxGeometry y="150" width="180" height="30" as="geometry" />
        </mxCell>
        <mxCell id="FyCBtOwuz3_LG9_jGdX4-1" value="" style="shape=partialRectangle;connectable=0;fillColor=none;top=0;left=0;bottom=0;right=0;editable=1;overflow=hidden;" vertex="1" parent="FyCBtOwuz3_LG9_jGdX4-0">
          <mxGeometry width="30" height="30" as="geometry" />
        </mxCell>
        <mxCell id="FyCBtOwuz3_LG9_jGdX4-2" value="rating" style="shape=partialRectangle;connectable=0;fillColor=none;top=0;left=0;bottom=0;right=0;align=left;spacingLeft=6;overflow=hidden;" vertex="1" parent="FyCBtOwuz3_LG9_jGdX4-0">
          <mxGeometry x="30" width="150" height="30" as="geometry" />
        </mxCell>
        <mxCell id="EkFjCymc94_KOpbJBFxo-52" value="Order" style="shape=table;startSize=30;container=1;collapsible=1;childLayout=tableLayout;fixedRows=1;rowLines=0;fontStyle=1;align=center;resizeLast=1;fillColor=#f5f5f5;strokeColor=#666666;fontColor=#333333;" vertex="1" parent="R1SRNepr17xu-sR1Fzx6-1">
          <mxGeometry x="144" y="468" width="180" height="160" as="geometry" />
        </mxCell>
        <mxCell id="EkFjCymc94_KOpbJBFxo-53" value="" style="shape=partialRectangle;collapsible=0;dropTarget=0;pointerEvents=0;fillColor=none;top=0;left=0;bottom=1;right=0;points=[[0,0.5],[1,0.5]];portConstraint=eastwest;" vertex="1" parent="EkFjCymc94_KOpbJBFxo-52">
          <mxGeometry y="30" width="180" height="30" as="geometry" />
        </mxCell>
        <mxCell id="EkFjCymc94_KOpbJBFxo-54" value="PK" style="shape=partialRectangle;connectable=0;fillColor=none;top=0;left=0;bottom=0;right=0;fontStyle=1;overflow=hidden;" vertex="1" parent="EkFjCymc94_KOpbJBFxo-53">
          <mxGeometry width="30" height="30" as="geometry" />
        </mxCell>
        <mxCell id="EkFjCymc94_KOpbJBFxo-55" value="order_id" style="shape=partialRectangle;connectable=0;fillColor=none;top=0;left=0;bottom=0;right=0;align=left;spacingLeft=6;fontStyle=5;overflow=hidden;" vertex="1" parent="EkFjCymc94_KOpbJBFxo-53">
          <mxGeometry x="30" width="150" height="30" as="geometry" />
        </mxCell>
        <mxCell id="EkFjCymc94_KOpbJBFxo-56" value="" style="shape=partialRectangle;collapsible=0;dropTarget=0;pointerEvents=0;fillColor=none;top=0;left=0;bottom=0;right=0;points=[[0,0.5],[1,0.5]];portConstraint=eastwest;" vertex="1" parent="EkFjCymc94_KOpbJBFxo-52">
          <mxGeometry y="60" width="180" height="30" as="geometry" />
        </mxCell>
        <mxCell id="EkFjCymc94_KOpbJBFxo-57" value="" style="shape=partialRectangle;connectable=0;fillColor=none;top=0;left=0;bottom=0;right=0;editable=1;overflow=hidden;" vertex="1" parent="EkFjCymc94_KOpbJBFxo-56">
          <mxGeometry width="30" height="30" as="geometry" />
        </mxCell>
        <mxCell id="EkFjCymc94_KOpbJBFxo-58" value="cost" style="shape=partialRectangle;connectable=0;fillColor=none;top=0;left=0;bottom=0;right=0;align=left;spacingLeft=6;overflow=hidden;" vertex="1" parent="EkFjCymc94_KOpbJBFxo-56">
          <mxGeometry x="30" width="150" height="30" as="geometry" />
        </mxCell>
        <mxCell id="EkFjCymc94_KOpbJBFxo-59" value="" style="shape=partialRectangle;collapsible=0;dropTarget=0;pointerEvents=0;fillColor=none;top=0;left=0;bottom=0;right=0;points=[[0,0.5],[1,0.5]];portConstraint=eastwest;" vertex="1" parent="EkFjCymc94_KOpbJBFxo-52">
          <mxGeometry y="90" width="180" height="30" as="geometry" />
        </mxCell>
        <mxCell id="EkFjCymc94_KOpbJBFxo-60" value="" style="shape=partialRectangle;connectable=0;fillColor=none;top=0;left=0;bottom=0;right=0;editable=1;overflow=hidden;" vertex="1" parent="EkFjCymc94_KOpbJBFxo-59">
          <mxGeometry width="30" height="30" as="geometry" />
        </mxCell>
        <mxCell id="EkFjCymc94_KOpbJBFxo-61" value="payment_method" style="shape=partialRectangle;connectable=0;fillColor=none;top=0;left=0;bottom=0;right=0;align=left;spacingLeft=6;overflow=hidden;" vertex="1" parent="EkFjCymc94_KOpbJBFxo-59">
          <mxGeometry x="30" width="150" height="30" as="geometry" />
        </mxCell>
        <mxCell id="EkFjCymc94_KOpbJBFxo-62" value="" style="shape=partialRectangle;collapsible=0;dropTarget=0;pointerEvents=0;fillColor=none;top=0;left=0;bottom=0;right=0;points=[[0,0.5],[1,0.5]];portConstraint=eastwest;" vertex="1" parent="EkFjCymc94_KOpbJBFxo-52">
          <mxGeometry y="120" width="180" height="30" as="geometry" />
        </mxCell>
        <mxCell id="EkFjCymc94_KOpbJBFxo-63" value="" style="shape=partialRectangle;connectable=0;fillColor=none;top=0;left=0;bottom=0;right=0;editable=1;overflow=hidden;" vertex="1" parent="EkFjCymc94_KOpbJBFxo-62">
          <mxGeometry width="30" height="30" as="geometry" />
        </mxCell>
        <mxCell id="EkFjCymc94_KOpbJBFxo-64" value="date" style="shape=partialRectangle;connectable=0;fillColor=none;top=0;left=0;bottom=0;right=0;align=left;spacingLeft=6;overflow=hidden;" vertex="1" parent="EkFjCymc94_KOpbJBFxo-62">
          <mxGeometry x="30" width="150" height="30" as="geometry" />
        </mxCell>
        <mxCell id="EkFjCymc94_KOpbJBFxo-65" value="Client" style="shape=table;startSize=30;container=1;collapsible=1;childLayout=tableLayout;fixedRows=1;rowLines=0;fontStyle=1;align=center;resizeLast=1;fillColor=#f5f5f5;strokeColor=#666666;fontColor=#333333;" vertex="1" parent="R1SRNepr17xu-sR1Fzx6-1">
          <mxGeometry x="647" y="468" width="180" height="280" as="geometry" />
        </mxCell>
        <mxCell id="EkFjCymc94_KOpbJBFxo-66" value="" style="shape=partialRectangle;collapsible=0;dropTarget=0;pointerEvents=0;fillColor=none;top=0;left=0;bottom=1;right=0;points=[[0,0.5],[1,0.5]];portConstraint=eastwest;" vertex="1" parent="EkFjCymc94_KOpbJBFxo-65">
          <mxGeometry y="30" width="180" height="30" as="geometry" />
        </mxCell>
        <mxCell id="EkFjCymc94_KOpbJBFxo-67" value="PK" style="shape=partialRectangle;connectable=0;fillColor=none;top=0;left=0;bottom=0;right=0;fontStyle=1;overflow=hidden;" vertex="1" parent="EkFjCymc94_KOpbJBFxo-66">
          <mxGeometry width="30" height="30" as="geometry" />
        </mxCell>
        <mxCell id="EkFjCymc94_KOpbJBFxo-68" value="client_id" style="shape=partialRectangle;connectable=0;fillColor=none;top=0;left=0;bottom=0;right=0;align=left;spacingLeft=6;fontStyle=5;overflow=hidden;" vertex="1" parent="EkFjCymc94_KOpbJBFxo-66">
          <mxGeometry x="30" width="150" height="30" as="geometry" />
        </mxCell>
        <mxCell id="EkFjCymc94_KOpbJBFxo-69" value="" style="shape=partialRectangle;collapsible=0;dropTarget=0;pointerEvents=0;fillColor=none;top=0;left=0;bottom=0;right=0;points=[[0,0.5],[1,0.5]];portConstraint=eastwest;" vertex="1" parent="EkFjCymc94_KOpbJBFxo-65">
          <mxGeometry y="60" width="180" height="30" as="geometry" />
        </mxCell>
        <mxCell id="EkFjCymc94_KOpbJBFxo-70" value="" style="shape=partialRectangle;connectable=0;fillColor=none;top=0;left=0;bottom=0;right=0;editable=1;overflow=hidden;" vertex="1" parent="EkFjCymc94_KOpbJBFxo-69">
          <mxGeometry width="30" height="30" as="geometry" />
        </mxCell>
        <mxCell id="EkFjCymc94_KOpbJBFxo-71" value="first_name" style="shape=partialRectangle;connectable=0;fillColor=none;top=0;left=0;bottom=0;right=0;align=left;spacingLeft=6;overflow=hidden;" vertex="1" parent="EkFjCymc94_KOpbJBFxo-69">
          <mxGeometry x="30" width="150" height="30" as="geometry" />
        </mxCell>
        <mxCell id="EkFjCymc94_KOpbJBFxo-72" value="" style="shape=partialRectangle;collapsible=0;dropTarget=0;pointerEvents=0;fillColor=none;top=0;left=0;bottom=0;right=0;points=[[0,0.5],[1,0.5]];portConstraint=eastwest;" vertex="1" parent="EkFjCymc94_KOpbJBFxo-65">
          <mxGeometry y="90" width="180" height="30" as="geometry" />
        </mxCell>
        <mxCell id="EkFjCymc94_KOpbJBFxo-73" value="" style="shape=partialRectangle;connectable=0;fillColor=none;top=0;left=0;bottom=0;right=0;editable=1;overflow=hidden;" vertex="1" parent="EkFjCymc94_KOpbJBFxo-72">
          <mxGeometry width="30" height="30" as="geometry" />
        </mxCell>
        <mxCell id="EkFjCymc94_KOpbJBFxo-74" value="last_name" style="shape=partialRectangle;connectable=0;fillColor=none;top=0;left=0;bottom=0;right=0;align=left;spacingLeft=6;overflow=hidden;" vertex="1" parent="EkFjCymc94_KOpbJBFxo-72">
          <mxGeometry x="30" width="150" height="30" as="geometry" />
        </mxCell>
        <mxCell id="EkFjCymc94_KOpbJBFxo-75" value="" style="shape=partialRectangle;collapsible=0;dropTarget=0;pointerEvents=0;fillColor=none;top=0;left=0;bottom=0;right=0;points=[[0,0.5],[1,0.5]];portConstraint=eastwest;" vertex="1" parent="EkFjCymc94_KOpbJBFxo-65">
          <mxGeometry y="120" width="180" height="30" as="geometry" />
        </mxCell>
        <mxCell id="EkFjCymc94_KOpbJBFxo-76" value="" style="shape=partialRectangle;connectable=0;fillColor=none;top=0;left=0;bottom=0;right=0;editable=1;overflow=hidden;" vertex="1" parent="EkFjCymc94_KOpbJBFxo-75">
          <mxGeometry width="30" height="30" as="geometry" />
        </mxCell>
        <mxCell id="EkFjCymc94_KOpbJBFxo-77" value="patronymic" style="shape=partialRectangle;connectable=0;fillColor=none;top=0;left=0;bottom=0;right=0;align=left;spacingLeft=6;overflow=hidden;" vertex="1" parent="EkFjCymc94_KOpbJBFxo-75">
          <mxGeometry x="30" width="150" height="30" as="geometry" />
        </mxCell>
        <mxCell id="jReXL5nNPeNA7aFNl4IK-0" value="" style="shape=partialRectangle;collapsible=0;dropTarget=0;pointerEvents=0;fillColor=none;top=0;left=0;bottom=0;right=0;points=[[0,0.5],[1,0.5]];portConstraint=eastwest;" vertex="1" parent="EkFjCymc94_KOpbJBFxo-65">
          <mxGeometry y="150" width="180" height="30" as="geometry" />
        </mxCell>
        <mxCell id="jReXL5nNPeNA7aFNl4IK-1" value="" style="shape=partialRectangle;connectable=0;fillColor=none;top=0;left=0;bottom=0;right=0;editable=1;overflow=hidden;" vertex="1" parent="jReXL5nNPeNA7aFNl4IK-0">
          <mxGeometry width="30" height="30" as="geometry" />
        </mxCell>
        <mxCell id="jReXL5nNPeNA7aFNl4IK-2" value="e-mail" style="shape=partialRectangle;connectable=0;fillColor=none;top=0;left=0;bottom=0;right=0;align=left;spacingLeft=6;overflow=hidden;" vertex="1" parent="jReXL5nNPeNA7aFNl4IK-0">
          <mxGeometry x="30" width="150" height="30" as="geometry" />
        </mxCell>
        <mxCell id="jReXL5nNPeNA7aFNl4IK-3" value="" style="shape=partialRectangle;collapsible=0;dropTarget=0;pointerEvents=0;fillColor=none;top=0;left=0;bottom=0;right=0;points=[[0,0.5],[1,0.5]];portConstraint=eastwest;" vertex="1" parent="EkFjCymc94_KOpbJBFxo-65">
          <mxGeometry y="180" width="180" height="30" as="geometry" />
        </mxCell>
        <mxCell id="jReXL5nNPeNA7aFNl4IK-4" value="" style="shape=partialRectangle;connectable=0;fillColor=none;top=0;left=0;bottom=0;right=0;editable=1;overflow=hidden;" vertex="1" parent="jReXL5nNPeNA7aFNl4IK-3">
          <mxGeometry width="30" height="30" as="geometry" />
        </mxCell>
        <mxCell id="jReXL5nNPeNA7aFNl4IK-5" value="phone" style="shape=partialRectangle;connectable=0;fillColor=none;top=0;left=0;bottom=0;right=0;align=left;spacingLeft=6;overflow=hidden;" vertex="1" parent="jReXL5nNPeNA7aFNl4IK-3">
          <mxGeometry x="30" width="150" height="30" as="geometry" />
        </mxCell>
        <mxCell id="jReXL5nNPeNA7aFNl4IK-6" value="" style="shape=partialRectangle;collapsible=0;dropTarget=0;pointerEvents=0;fillColor=none;top=0;left=0;bottom=0;right=0;points=[[0,0.5],[1,0.5]];portConstraint=eastwest;" vertex="1" parent="EkFjCymc94_KOpbJBFxo-65">
          <mxGeometry y="210" width="180" height="30" as="geometry" />
        </mxCell>
        <mxCell id="jReXL5nNPeNA7aFNl4IK-7" value="" style="shape=partialRectangle;connectable=0;fillColor=none;top=0;left=0;bottom=0;right=0;editable=1;overflow=hidden;" vertex="1" parent="jReXL5nNPeNA7aFNl4IK-6">
          <mxGeometry width="30" height="30" as="geometry" />
        </mxCell>
        <mxCell id="jReXL5nNPeNA7aFNl4IK-8" value="password" style="shape=partialRectangle;connectable=0;fillColor=none;top=0;left=0;bottom=0;right=0;align=left;spacingLeft=6;overflow=hidden;" vertex="1" parent="jReXL5nNPeNA7aFNl4IK-6">
          <mxGeometry x="30" width="150" height="30" as="geometry" />
        </mxCell>
        <mxCell id="ZzE3FssKA3_5S6Lv3IBM-0" value="" style="shape=partialRectangle;collapsible=0;dropTarget=0;pointerEvents=0;fillColor=none;top=0;left=0;bottom=0;right=0;points=[[0,0.5],[1,0.5]];portConstraint=eastwest;" vertex="1" parent="EkFjCymc94_KOpbJBFxo-65">
          <mxGeometry y="240" width="180" height="30" as="geometry" />
        </mxCell>
        <mxCell id="ZzE3FssKA3_5S6Lv3IBM-1" value="" style="shape=partialRectangle;connectable=0;fillColor=none;top=0;left=0;bottom=0;right=0;editable=1;overflow=hidden;" vertex="1" parent="ZzE3FssKA3_5S6Lv3IBM-0">
          <mxGeometry width="30" height="30" as="geometry" />
        </mxCell>
        <mxCell id="ZzE3FssKA3_5S6Lv3IBM-2" value="nickname" style="shape=partialRectangle;connectable=0;fillColor=none;top=0;left=0;bottom=0;right=0;align=left;spacingLeft=6;overflow=hidden;" vertex="1" parent="ZzE3FssKA3_5S6Lv3IBM-0">
          <mxGeometry x="30" width="150" height="30" as="geometry" />
        </mxCell>
        <mxCell id="roKYjGmzsMC28RvoGRB--0" value="make" style="shape=table;startSize=30;container=1;collapsible=1;childLayout=tableLayout;fixedRows=1;rowLines=0;fontStyle=1;align=center;resizeLast=1;fillColor=#f5f5f5;strokeColor=#666666;fontColor=#333333;" vertex="1" parent="R1SRNepr17xu-sR1Fzx6-1">
          <mxGeometry x="396" y="468" width="180" height="130" as="geometry" />
        </mxCell>
        <mxCell id="roKYjGmzsMC28RvoGRB--1" value="" style="shape=partialRectangle;collapsible=0;dropTarget=0;pointerEvents=0;fillColor=none;top=0;left=0;bottom=1;right=0;points=[[0,0.5],[1,0.5]];portConstraint=eastwest;" vertex="1" parent="roKYjGmzsMC28RvoGRB--0">
          <mxGeometry y="30" width="180" height="30" as="geometry" />
        </mxCell>
        <mxCell id="roKYjGmzsMC28RvoGRB--2" value="PK" style="shape=partialRectangle;connectable=0;fillColor=none;top=0;left=0;bottom=0;right=0;fontStyle=1;overflow=hidden;" vertex="1" parent="roKYjGmzsMC28RvoGRB--1">
          <mxGeometry width="30" height="30" as="geometry" />
        </mxCell>
        <mxCell id="roKYjGmzsMC28RvoGRB--3" value="make_id" style="shape=partialRectangle;connectable=0;fillColor=none;top=0;left=0;bottom=0;right=0;align=left;spacingLeft=6;fontStyle=5;overflow=hidden;" vertex="1" parent="roKYjGmzsMC28RvoGRB--1">
          <mxGeometry x="30" width="150" height="30" as="geometry" />
        </mxCell>
        <mxCell id="roKYjGmzsMC28RvoGRB--4" value="" style="shape=partialRectangle;collapsible=0;dropTarget=0;pointerEvents=0;fillColor=none;top=0;left=0;bottom=0;right=0;points=[[0,0.5],[1,0.5]];portConstraint=eastwest;" vertex="1" parent="roKYjGmzsMC28RvoGRB--0">
          <mxGeometry y="60" width="180" height="30" as="geometry" />
        </mxCell>
        <mxCell id="roKYjGmzsMC28RvoGRB--5" value="FK" style="shape=partialRectangle;connectable=0;fillColor=none;top=0;left=0;bottom=0;right=0;editable=1;overflow=hidden;" vertex="1" parent="roKYjGmzsMC28RvoGRB--4">
          <mxGeometry width="30" height="30" as="geometry" />
        </mxCell>
        <mxCell id="roKYjGmzsMC28RvoGRB--6" value="client_id" style="shape=partialRectangle;connectable=0;fillColor=none;top=0;left=0;bottom=0;right=0;align=left;spacingLeft=6;overflow=hidden;fontStyle=0" vertex="1" parent="roKYjGmzsMC28RvoGRB--4">
          <mxGeometry x="30" width="150" height="30" as="geometry" />
        </mxCell>
        <mxCell id="roKYjGmzsMC28RvoGRB--7" value="" style="shape=partialRectangle;collapsible=0;dropTarget=0;pointerEvents=0;fillColor=none;top=0;left=0;bottom=0;right=0;points=[[0,0.5],[1,0.5]];portConstraint=eastwest;" vertex="1" parent="roKYjGmzsMC28RvoGRB--0">
          <mxGeometry y="90" width="180" height="30" as="geometry" />
        </mxCell>
        <mxCell id="roKYjGmzsMC28RvoGRB--8" value="FK" style="shape=partialRectangle;connectable=0;fillColor=none;top=0;left=0;bottom=0;right=0;editable=1;overflow=hidden;" vertex="1" parent="roKYjGmzsMC28RvoGRB--7">
          <mxGeometry width="30" height="30" as="geometry" />
        </mxCell>
        <mxCell id="roKYjGmzsMC28RvoGRB--9" value="order_id" style="shape=partialRectangle;connectable=0;fillColor=none;top=0;left=0;bottom=0;right=0;align=left;spacingLeft=6;overflow=hidden;fontStyle=0" vertex="1" parent="roKYjGmzsMC28RvoGRB--7">
          <mxGeometry x="30" width="150" height="30" as="geometry" />
        </mxCell>
        <mxCell id="PrQ5AObnzE-3YV-Hrg5V-13" value="have" style="shape=table;startSize=30;container=1;collapsible=1;childLayout=tableLayout;fixedRows=1;rowLines=0;fontStyle=1;align=center;resizeLast=1;fillColor=#f5f5f5;strokeColor=#666666;fontColor=#333333;" vertex="1" parent="R1SRNepr17xu-sR1Fzx6-1">
          <mxGeometry x="-108" y="720" width="180" height="130" as="geometry" />
        </mxCell>
        <mxCell id="PrQ5AObnzE-3YV-Hrg5V-14" value="" style="shape=partialRectangle;collapsible=0;dropTarget=0;pointerEvents=0;fillColor=none;top=0;left=0;bottom=1;right=0;points=[[0,0.5],[1,0.5]];portConstraint=eastwest;" vertex="1" parent="PrQ5AObnzE-3YV-Hrg5V-13">
          <mxGeometry y="30" width="180" height="30" as="geometry" />
        </mxCell>
        <mxCell id="PrQ5AObnzE-3YV-Hrg5V-15" value="PK" style="shape=partialRectangle;connectable=0;fillColor=none;top=0;left=0;bottom=0;right=0;fontStyle=1;overflow=hidden;" vertex="1" parent="PrQ5AObnzE-3YV-Hrg5V-14">
          <mxGeometry width="30" height="30" as="geometry" />
        </mxCell>
        <mxCell id="PrQ5AObnzE-3YV-Hrg5V-16" value="have_id" style="shape=partialRectangle;connectable=0;fillColor=none;top=0;left=0;bottom=0;right=0;align=left;spacingLeft=6;fontStyle=5;overflow=hidden;" vertex="1" parent="PrQ5AObnzE-3YV-Hrg5V-14">
          <mxGeometry x="30" width="150" height="30" as="geometry" />
        </mxCell>
        <mxCell id="PrQ5AObnzE-3YV-Hrg5V-17" value="" style="shape=partialRectangle;collapsible=0;dropTarget=0;pointerEvents=0;fillColor=none;top=0;left=0;bottom=0;right=0;points=[[0,0.5],[1,0.5]];portConstraint=eastwest;" vertex="1" parent="PrQ5AObnzE-3YV-Hrg5V-13">
          <mxGeometry y="60" width="180" height="30" as="geometry" />
        </mxCell>
        <mxCell id="PrQ5AObnzE-3YV-Hrg5V-18" value="FK" style="shape=partialRectangle;connectable=0;fillColor=none;top=0;left=0;bottom=0;right=0;editable=1;overflow=hidden;" vertex="1" parent="PrQ5AObnzE-3YV-Hrg5V-17">
          <mxGeometry width="30" height="30" as="geometry" />
        </mxCell>
        <mxCell id="PrQ5AObnzE-3YV-Hrg5V-19" value="comment_id" style="shape=partialRectangle;connectable=0;fillColor=none;top=0;left=0;bottom=0;right=0;align=left;spacingLeft=6;overflow=hidden;fontStyle=0" vertex="1" parent="PrQ5AObnzE-3YV-Hrg5V-17">
          <mxGeometry x="30" width="150" height="30" as="geometry" />
        </mxCell>
        <mxCell id="PrQ5AObnzE-3YV-Hrg5V-20" value="" style="shape=partialRectangle;collapsible=0;dropTarget=0;pointerEvents=0;fillColor=none;top=0;left=0;bottom=0;right=0;points=[[0,0.5],[1,0.5]];portConstraint=eastwest;" vertex="1" parent="PrQ5AObnzE-3YV-Hrg5V-13">
          <mxGeometry y="90" width="180" height="30" as="geometry" />
        </mxCell>
        <mxCell id="PrQ5AObnzE-3YV-Hrg5V-21" value="FK" style="shape=partialRectangle;connectable=0;fillColor=none;top=0;left=0;bottom=0;right=0;editable=1;overflow=hidden;" vertex="1" parent="PrQ5AObnzE-3YV-Hrg5V-20">
          <mxGeometry width="30" height="30" as="geometry" />
        </mxCell>
        <mxCell id="PrQ5AObnzE-3YV-Hrg5V-22" value="product_id" style="shape=partialRectangle;connectable=0;fillColor=none;top=0;left=0;bottom=0;right=0;align=left;spacingLeft=6;overflow=hidden;fontStyle=0" vertex="1" parent="PrQ5AObnzE-3YV-Hrg5V-20">
          <mxGeometry x="30" width="150" height="30" as="geometry" />
        </mxCell>
        <mxCell id="PrQ5AObnzE-3YV-Hrg5V-23" value="write" style="shape=table;startSize=30;container=1;collapsible=1;childLayout=tableLayout;fixedRows=1;rowLines=0;fontStyle=1;align=center;resizeLast=1;fillColor=#f5f5f5;strokeColor=#666666;fontColor=#333333;" vertex="1" parent="R1SRNepr17xu-sR1Fzx6-1">
          <mxGeometry x="396" y="720" width="180" height="130" as="geometry" />
        </mxCell>
        <mxCell id="PrQ5AObnzE-3YV-Hrg5V-24" value="" style="shape=partialRectangle;collapsible=0;dropTarget=0;pointerEvents=0;fillColor=none;top=0;left=0;bottom=1;right=0;points=[[0,0.5],[1,0.5]];portConstraint=eastwest;" vertex="1" parent="PrQ5AObnzE-3YV-Hrg5V-23">
          <mxGeometry y="30" width="180" height="30" as="geometry" />
        </mxCell>
        <mxCell id="PrQ5AObnzE-3YV-Hrg5V-25" value="PK" style="shape=partialRectangle;connectable=0;fillColor=none;top=0;left=0;bottom=0;right=0;fontStyle=1;overflow=hidden;" vertex="1" parent="PrQ5AObnzE-3YV-Hrg5V-24">
          <mxGeometry width="30" height="30" as="geometry" />
        </mxCell>
        <mxCell id="PrQ5AObnzE-3YV-Hrg5V-26" value="write_id" style="shape=partialRectangle;connectable=0;fillColor=none;top=0;left=0;bottom=0;right=0;align=left;spacingLeft=6;fontStyle=5;overflow=hidden;" vertex="1" parent="PrQ5AObnzE-3YV-Hrg5V-24">
          <mxGeometry x="30" width="150" height="30" as="geometry" />
        </mxCell>
        <mxCell id="PrQ5AObnzE-3YV-Hrg5V-27" value="" style="shape=partialRectangle;collapsible=0;dropTarget=0;pointerEvents=0;fillColor=none;top=0;left=0;bottom=0;right=0;points=[[0,0.5],[1,0.5]];portConstraint=eastwest;" vertex="1" parent="PrQ5AObnzE-3YV-Hrg5V-23">
          <mxGeometry y="60" width="180" height="30" as="geometry" />
        </mxCell>
        <mxCell id="PrQ5AObnzE-3YV-Hrg5V-28" value="FK" style="shape=partialRectangle;connectable=0;fillColor=none;top=0;left=0;bottom=0;right=0;editable=1;overflow=hidden;" vertex="1" parent="PrQ5AObnzE-3YV-Hrg5V-27">
          <mxGeometry width="30" height="30" as="geometry" />
        </mxCell>
        <mxCell id="PrQ5AObnzE-3YV-Hrg5V-29" value="client_id" style="shape=partialRectangle;connectable=0;fillColor=none;top=0;left=0;bottom=0;right=0;align=left;spacingLeft=6;overflow=hidden;fontStyle=0" vertex="1" parent="PrQ5AObnzE-3YV-Hrg5V-27">
          <mxGeometry x="30" width="150" height="30" as="geometry" />
        </mxCell>
        <mxCell id="PrQ5AObnzE-3YV-Hrg5V-30" value="" style="shape=partialRectangle;collapsible=0;dropTarget=0;pointerEvents=0;fillColor=none;top=0;left=0;bottom=0;right=0;points=[[0,0.5],[1,0.5]];portConstraint=eastwest;" vertex="1" parent="PrQ5AObnzE-3YV-Hrg5V-23">
          <mxGeometry y="90" width="180" height="30" as="geometry" />
        </mxCell>
        <mxCell id="PrQ5AObnzE-3YV-Hrg5V-31" value="FK" style="shape=partialRectangle;connectable=0;fillColor=none;top=0;left=0;bottom=0;right=0;editable=1;overflow=hidden;" vertex="1" parent="PrQ5AObnzE-3YV-Hrg5V-30">
          <mxGeometry width="30" height="30" as="geometry" />
        </mxCell>
        <mxCell id="PrQ5AObnzE-3YV-Hrg5V-32" value="comment_id" style="shape=partialRectangle;connectable=0;fillColor=none;top=0;left=0;bottom=0;right=0;align=left;spacingLeft=6;overflow=hidden;fontStyle=0" vertex="1" parent="PrQ5AObnzE-3YV-Hrg5V-30">
          <mxGeometry x="30" width="150" height="30" as="geometry" />
        </mxCell>
        <mxCell id="mxE9Ukgmgb-63-peCfNb-0" value="get_into" style="shape=table;startSize=30;container=1;collapsible=1;childLayout=tableLayout;fixedRows=1;rowLines=0;fontStyle=1;align=center;resizeLast=1;fillColor=#f5f5f5;strokeColor=#666666;fontColor=#333333;" vertex="1" parent="R1SRNepr17xu-sR1Fzx6-1">
          <mxGeometry x="-108" y="468" width="180" height="130" as="geometry" />
        </mxCell>
        <mxCell id="mxE9Ukgmgb-63-peCfNb-1" value="" style="shape=partialRectangle;collapsible=0;dropTarget=0;pointerEvents=0;fillColor=none;top=0;left=0;bottom=1;right=0;points=[[0,0.5],[1,0.5]];portConstraint=eastwest;" vertex="1" parent="mxE9Ukgmgb-63-peCfNb-0">
          <mxGeometry y="30" width="180" height="30" as="geometry" />
        </mxCell>
        <mxCell id="mxE9Ukgmgb-63-peCfNb-2" value="PK" style="shape=partialRectangle;connectable=0;fillColor=none;top=0;left=0;bottom=0;right=0;fontStyle=1;overflow=hidden;" vertex="1" parent="mxE9Ukgmgb-63-peCfNb-1">
          <mxGeometry width="30" height="30" as="geometry" />
        </mxCell>
        <mxCell id="mxE9Ukgmgb-63-peCfNb-3" value="get_into_id" style="shape=partialRectangle;connectable=0;fillColor=none;top=0;left=0;bottom=0;right=0;align=left;spacingLeft=6;fontStyle=5;overflow=hidden;" vertex="1" parent="mxE9Ukgmgb-63-peCfNb-1">
          <mxGeometry x="30" width="150" height="30" as="geometry" />
        </mxCell>
        <mxCell id="mxE9Ukgmgb-63-peCfNb-4" value="" style="shape=partialRectangle;collapsible=0;dropTarget=0;pointerEvents=0;fillColor=none;top=0;left=0;bottom=0;right=0;points=[[0,0.5],[1,0.5]];portConstraint=eastwest;" vertex="1" parent="mxE9Ukgmgb-63-peCfNb-0">
          <mxGeometry y="60" width="180" height="30" as="geometry" />
        </mxCell>
        <mxCell id="mxE9Ukgmgb-63-peCfNb-5" value="FK" style="shape=partialRectangle;connectable=0;fillColor=none;top=0;left=0;bottom=0;right=0;editable=1;overflow=hidden;" vertex="1" parent="mxE9Ukgmgb-63-peCfNb-4">
          <mxGeometry width="30" height="30" as="geometry" />
        </mxCell>
        <mxCell id="mxE9Ukgmgb-63-peCfNb-6" value="product_id" style="shape=partialRectangle;connectable=0;fillColor=none;top=0;left=0;bottom=0;right=0;align=left;spacingLeft=6;overflow=hidden;fontStyle=0" vertex="1" parent="mxE9Ukgmgb-63-peCfNb-4">
          <mxGeometry x="30" width="150" height="30" as="geometry" />
        </mxCell>
        <mxCell id="mxE9Ukgmgb-63-peCfNb-7" value="" style="shape=partialRectangle;collapsible=0;dropTarget=0;pointerEvents=0;fillColor=none;top=0;left=0;bottom=0;right=0;points=[[0,0.5],[1,0.5]];portConstraint=eastwest;" vertex="1" parent="mxE9Ukgmgb-63-peCfNb-0">
          <mxGeometry y="90" width="180" height="30" as="geometry" />
        </mxCell>
        <mxCell id="mxE9Ukgmgb-63-peCfNb-8" value="FK" style="shape=partialRectangle;connectable=0;fillColor=none;top=0;left=0;bottom=0;right=0;editable=1;overflow=hidden;" vertex="1" parent="mxE9Ukgmgb-63-peCfNb-7">
          <mxGeometry width="30" height="30" as="geometry" />
        </mxCell>
        <mxCell id="mxE9Ukgmgb-63-peCfNb-9" value="order_id" style="shape=partialRectangle;connectable=0;fillColor=none;top=0;left=0;bottom=0;right=0;align=left;spacingLeft=6;overflow=hidden;fontStyle=0" vertex="1" parent="mxE9Ukgmgb-63-peCfNb-7">
          <mxGeometry x="30" width="150" height="30" as="geometry" />
        </mxCell>
        <mxCell id="P9RBfZ3fHaEG3qhzMv9w-1" value="" style="endArrow=ERoneToMany;html=1;exitX=1;exitY=0.5;exitDx=0;exitDy=0;entryX=0;entryY=0.5;entryDx=0;entryDy=0;startArrow=ERzeroToOne;startFill=1;endFill=0;" edge="1" parent="R1SRNepr17xu-sR1Fzx6-1" source="EkFjCymc94_KOpbJBFxo-27" target="mxE9Ukgmgb-63-peCfNb-4">
          <mxGeometry width="50" height="50" relative="1" as="geometry">
            <mxPoint x="180" y="464" as="sourcePoint" />
            <mxPoint x="230" y="414" as="targetPoint" />
          </mxGeometry>
        </mxCell>
        <mxCell id="P9RBfZ3fHaEG3qhzMv9w-2" value="" style="endArrow=ERoneToMany;html=1;exitX=0;exitY=0.5;exitDx=0;exitDy=0;entryX=1;entryY=0.5;entryDx=0;entryDy=0;startArrow=ERmandOne;startFill=0;endFill=0;" edge="1" parent="R1SRNepr17xu-sR1Fzx6-1" source="EkFjCymc94_KOpbJBFxo-53" target="mxE9Ukgmgb-63-peCfNb-7">
          <mxGeometry width="50" height="50" relative="1" as="geometry">
            <mxPoint x="180" y="464" as="sourcePoint" />
            <mxPoint x="230" y="414" as="targetPoint" />
          </mxGeometry>
        </mxCell>
        <mxCell id="P9RBfZ3fHaEG3qhzMv9w-3" value="" style="endArrow=ERmandOne;html=1;exitX=1;exitY=0.5;exitDx=0;exitDy=0;entryX=0;entryY=0.5;entryDx=0;entryDy=0;startArrow=ERmandOne;startFill=0;endFill=0;" edge="1" parent="R1SRNepr17xu-sR1Fzx6-1" source="EkFjCymc94_KOpbJBFxo-53" target="roKYjGmzsMC28RvoGRB--7">
          <mxGeometry width="50" height="50" relative="1" as="geometry">
            <mxPoint x="180" y="464" as="sourcePoint" />
            <mxPoint x="230" y="414" as="targetPoint" />
          </mxGeometry>
        </mxCell>
        <mxCell id="P9RBfZ3fHaEG3qhzMv9w-4" value="" style="endArrow=ERoneToMany;html=1;exitX=0;exitY=0.5;exitDx=0;exitDy=0;entryX=1;entryY=0.5;entryDx=0;entryDy=0;startArrow=ERzeroToOne;startFill=1;endFill=0;" edge="1" parent="R1SRNepr17xu-sR1Fzx6-1" source="EkFjCymc94_KOpbJBFxo-66" target="roKYjGmzsMC28RvoGRB--4">
          <mxGeometry width="50" height="50" relative="1" as="geometry">
            <mxPoint x="180" y="464" as="sourcePoint" />
            <mxPoint x="230" y="414" as="targetPoint" />
          </mxGeometry>
        </mxCell>
        <mxCell id="P9RBfZ3fHaEG3qhzMv9w-6" value="" style="endArrow=ERmandOne;html=1;exitX=0;exitY=0.5;exitDx=0;exitDy=0;entryX=1;entryY=0.5;entryDx=0;entryDy=0;startArrow=ERmandOne;startFill=0;endFill=0;" edge="1" parent="R1SRNepr17xu-sR1Fzx6-1" source="EkFjCymc94_KOpbJBFxo-14" target="v5YLeqtvXj-0N2xrPBLM-17">
          <mxGeometry width="50" height="50" relative="1" as="geometry">
            <mxPoint x="180" y="464" as="sourcePoint" />
            <mxPoint x="99" y="333" as="targetPoint" />
          </mxGeometry>
        </mxCell>
        <mxCell id="v5YLeqtvXj-0N2xrPBLM-13" value="perform" style="shape=table;startSize=30;container=1;collapsible=1;childLayout=tableLayout;fixedRows=1;rowLines=0;fontStyle=1;align=center;resizeLast=1;fillColor=#f5f5f5;strokeColor=#666666;fontColor=#333333;" vertex="1" parent="R1SRNepr17xu-sR1Fzx6-1">
          <mxGeometry x="-108" y="252" width="180" height="130" as="geometry" />
        </mxCell>
        <mxCell id="v5YLeqtvXj-0N2xrPBLM-14" value="" style="shape=partialRectangle;collapsible=0;dropTarget=0;pointerEvents=0;fillColor=none;top=0;left=0;bottom=1;right=0;points=[[0,0.5],[1,0.5]];portConstraint=eastwest;" vertex="1" parent="v5YLeqtvXj-0N2xrPBLM-13">
          <mxGeometry y="30" width="180" height="30" as="geometry" />
        </mxCell>
        <mxCell id="v5YLeqtvXj-0N2xrPBLM-15" value="PK" style="shape=partialRectangle;connectable=0;fillColor=none;top=0;left=0;bottom=0;right=0;fontStyle=1;overflow=hidden;" vertex="1" parent="v5YLeqtvXj-0N2xrPBLM-14">
          <mxGeometry width="30" height="30" as="geometry" />
        </mxCell>
        <mxCell id="v5YLeqtvXj-0N2xrPBLM-16" value="perform_id" style="shape=partialRectangle;connectable=0;fillColor=none;top=0;left=0;bottom=0;right=0;align=left;spacingLeft=6;fontStyle=5;overflow=hidden;" vertex="1" parent="v5YLeqtvXj-0N2xrPBLM-14">
          <mxGeometry x="30" width="150" height="30" as="geometry" />
        </mxCell>
        <mxCell id="v5YLeqtvXj-0N2xrPBLM-17" value="" style="shape=partialRectangle;collapsible=0;dropTarget=0;pointerEvents=0;fillColor=none;top=0;left=0;bottom=0;right=0;points=[[0,0.5],[1,0.5]];portConstraint=eastwest;" vertex="1" parent="v5YLeqtvXj-0N2xrPBLM-13">
          <mxGeometry y="60" width="180" height="30" as="geometry" />
        </mxCell>
        <mxCell id="v5YLeqtvXj-0N2xrPBLM-18" value="FK" style="shape=partialRectangle;connectable=0;fillColor=none;top=0;left=0;bottom=0;right=0;editable=1;overflow=hidden;" vertex="1" parent="v5YLeqtvXj-0N2xrPBLM-17">
          <mxGeometry width="30" height="30" as="geometry" />
        </mxCell>
        <mxCell id="v5YLeqtvXj-0N2xrPBLM-19" value="delivery_id" style="shape=partialRectangle;connectable=0;fillColor=none;top=0;left=0;bottom=0;right=0;align=left;spacingLeft=6;overflow=hidden;fontStyle=0" vertex="1" parent="v5YLeqtvXj-0N2xrPBLM-17">
          <mxGeometry x="30" width="150" height="30" as="geometry" />
        </mxCell>
        <mxCell id="v5YLeqtvXj-0N2xrPBLM-20" value="" style="shape=partialRectangle;collapsible=0;dropTarget=0;pointerEvents=0;fillColor=none;top=0;left=0;bottom=0;right=0;points=[[0,0.5],[1,0.5]];portConstraint=eastwest;" vertex="1" parent="v5YLeqtvXj-0N2xrPBLM-13">
          <mxGeometry y="90" width="180" height="30" as="geometry" />
        </mxCell>
        <mxCell id="v5YLeqtvXj-0N2xrPBLM-21" value="FK" style="shape=partialRectangle;connectable=0;fillColor=none;top=0;left=0;bottom=0;right=0;editable=1;overflow=hidden;" vertex="1" parent="v5YLeqtvXj-0N2xrPBLM-20">
          <mxGeometry width="30" height="30" as="geometry" />
        </mxCell>
        <mxCell id="v5YLeqtvXj-0N2xrPBLM-22" value="service_delivery_id" style="shape=partialRectangle;connectable=0;fillColor=none;top=0;left=0;bottom=0;right=0;align=left;spacingLeft=6;overflow=hidden;fontStyle=0" vertex="1" parent="v5YLeqtvXj-0N2xrPBLM-20">
          <mxGeometry x="30" width="150" height="30" as="geometry" />
        </mxCell>
        <mxCell id="za8OVHNjHS6Rymz_ag27-0" value="" style="endArrow=ERoneToMany;html=1;exitX=1;exitY=0.5;exitDx=0;exitDy=0;entryX=0;entryY=0.5;entryDx=0;entryDy=0;startArrow=ERzeroToOne;startFill=1;endFill=0;" edge="1" parent="R1SRNepr17xu-sR1Fzx6-1" source="EkFjCymc94_KOpbJBFxo-1" target="v5YLeqtvXj-0N2xrPBLM-20">
          <mxGeometry width="50" height="50" relative="1" as="geometry">
            <mxPoint x="180" y="464" as="sourcePoint" />
            <mxPoint x="230" y="414" as="targetPoint" />
          </mxGeometry>
        </mxCell>
        <mxCell id="za8OVHNjHS6Rymz_ag27-1" value="" style="endArrow=ERmandOne;html=1;exitX=0;exitY=0.5;exitDx=0;exitDy=0;entryX=1;entryY=0.5;entryDx=0;entryDy=0;startArrow=ERmandOne;startFill=0;endFill=0;" edge="1" parent="R1SRNepr17xu-sR1Fzx6-1" source="PrQ5AObnzE-3YV-Hrg5V-30" target="EkFjCymc94_KOpbJBFxo-40">
          <mxGeometry width="50" height="50" relative="1" as="geometry">
            <mxPoint x="180" y="581" as="sourcePoint" />
            <mxPoint x="324" y="693" as="targetPoint" />
          </mxGeometry>
        </mxCell>
        <mxCell id="za8OVHNjHS6Rymz_ag27-2" value="" style="endArrow=ERmandOne;html=1;exitX=0;exitY=0.5;exitDx=0;exitDy=0;entryX=1;entryY=0.5;entryDx=0;entryDy=0;startArrow=ERmandOne;startFill=0;endFill=0;" edge="1" parent="R1SRNepr17xu-sR1Fzx6-1" source="EkFjCymc94_KOpbJBFxo-40" target="PrQ5AObnzE-3YV-Hrg5V-17">
          <mxGeometry width="50" height="50" relative="1" as="geometry">
            <mxPoint x="180" y="581" as="sourcePoint" />
            <mxPoint x="230" y="531" as="targetPoint" />
          </mxGeometry>
        </mxCell>
        <mxCell id="HL4EpRsbBcXqX8moz_Ft-0" value="" style="curved=1;endArrow=ERoneToMany;html=1;exitX=0;exitY=0.5;exitDx=0;exitDy=0;entryX=1;entryY=0.5;entryDx=0;entryDy=0;startArrow=ERzeroToOne;startFill=1;endFill=0;" edge="1" parent="R1SRNepr17xu-sR1Fzx6-1" source="EkFjCymc94_KOpbJBFxo-66" target="PrQ5AObnzE-3YV-Hrg5V-27">
          <mxGeometry width="50" height="50" relative="1" as="geometry">
            <mxPoint x="180" y="581" as="sourcePoint" />
            <mxPoint x="230" y="531" as="targetPoint" />
            <Array as="points">
              <mxPoint x="558" y="558" />
              <mxPoint x="666" y="795" />
            </Array>
          </mxGeometry>
        </mxCell>
        <mxCell id="rcYRZ9b6-KGwBtbXmGUQ-0" value="" style="curved=1;endArrow=ERoneToMany;html=1;exitX=1;exitY=0.5;exitDx=0;exitDy=0;entryX=0;entryY=0.5;entryDx=0;entryDy=0;startArrow=ERzeroToOne;startFill=1;endFill=0;" edge="1" parent="R1SRNepr17xu-sR1Fzx6-1" source="EkFjCymc94_KOpbJBFxo-27" target="PrQ5AObnzE-3YV-Hrg5V-20">
          <mxGeometry width="50" height="50" relative="1" as="geometry">
            <mxPoint x="180" y="581" as="sourcePoint" />
            <mxPoint x="230" y="531" as="targetPoint" />
            <Array as="points">
              <mxPoint x="-144" y="522" />
              <mxPoint x="-144" y="825" />
            </Array>
          </mxGeometry>
        </mxCell>
        <mxCell id="yOrw1MuZYB2QcSKTJTvD-0" value="" style="curved=1;endArrow=ERmandOne;html=1;exitX=1;exitY=0.5;exitDx=0;exitDy=0;entryX=1;entryY=0.5;entryDx=0;entryDy=0;startArrow=ERmandOne;startFill=0;endFill=0;" edge="1" parent="R1SRNepr17xu-sR1Fzx6-1" source="EkFjCymc94_KOpbJBFxo-53" target="EkFjCymc94_KOpbJBFxo-14">
          <mxGeometry width="50" height="50" relative="1" as="geometry">
            <mxPoint x="180" y="581" as="sourcePoint" />
            <mxPoint x="395.99999999999955" y="357" as="targetPoint" />
            <Array as="points">
              <mxPoint x="387" y="486" />
              <mxPoint x="369" y="306" />
            </Array>
          </mxGeometry>
        </mxCell>
      </root>
    </mxGraphModel>
  </diagram>
</mxfile>
